<?xml version="1.0" encoding="utf-8"?>
<!-- Generator: Adobe Illustrator 16.0.0, SVG Export Plug-In . SVG Version: 6.00 Build 0)  -->
<!DOCTYPE svg PUBLIC "-//W3C//DTD SVG 1.1//EN" "http://www.w3.org/Graphics/SVG/1.1/DTD/svg11.dtd">
<svg version="1.1" id="Layer_1" xmlns="http://www.w3.org/2000/svg" xmlns:xlink="http://www.w3.org/1999/xlink" x="0px" y="0px"
	 width="360px" height="120px" viewBox="-112.92 -74 360 120" enable-background="new -112.92 -74 360 120" xml:space="preserve">
<g>
	<path fill="#FFFFFF" d="M-20.594-16.833c3.325-2.794,6.344-6.518,8.311-10.518c-2.683-0.879-5.531-1.5-8.311-1.5V-16.833z
		 M-22.632-16.938c-3.398-2.688-6.435-6.412-8.406-10.412c2.696-0.961,5.539-1.5,8.406-1.5V-16.938z M-20.594-70.548
		c3.325,2.734,6.344,6.364,8.311,10.37c-2.683,0.994-5.531,1.639-8.311,1.639V-70.548z M-22.632-70.548
		c-3.398,2.734-6.435,6.452-8.406,10.37c2.696,0.898,5.539,1.639,8.406,1.639V-70.548z M-20.594-30.975v-11.761h12.419
		c0,4.712-1.153,9.328-3.136,13.619C-14.162-30.202-17.547-30.892-20.594-30.975 M6.462-42.735H-6.03
		c-0.174,5.186-1.268,9.782-3.297,14.424c2.668,1.24,5.077,2.754,7.395,4.685C3.162-28.76,6.19-35.619,6.462-42.735 M-3.446-22.27
		c-1.97-1.706-4.453-3.288-6.866-4.266c-2.243,4.171-5.014,7.635-8.488,10.763C-13.175-16.51-7.902-18.624-3.446-22.27
		 M-22.632-30.975v-11.761h-12.512c0.092,4.712,1.167,9.434,3.129,13.619C-29.066-30.202-25.842-30.892-22.632-30.975
		 M-49.781-42.735h12.502c0.277,5.186,1.358,9.717,3.402,14.424c-2.766,1.24-5.181,2.754-7.505,4.685
		C-46.473-28.76-49.419-35.435-49.781-42.735 M-39.861-22.27c2.055-1.603,4.461-3.382,6.874-4.266
		c2.224,4.171,5.004,7.635,8.477,10.763C-30.122-16.51-35.495-18.624-39.861-22.27 M-20.594-56.513v11.732h12.419
		c0-4.711-1.153-9.237-3.136-13.6C-14.25-57.3-17.466-56.589-20.594-56.513 M6.462-44.78H-6.03
		c-0.174-5.055-1.337-9.787-3.297-14.312c2.668-1.229,5.164-2.842,7.395-4.721C3.418-58.466,6.19-51.803,6.462-44.78 M-3.446-65.231
		c-2.048,1.797-4.453,3.391-6.866,4.374c-2.243-4.285-5.014-7.656-8.488-10.847C-13.175-70.999-7.902-68.873-3.446-65.231
		 M-22.632-56.513v11.732h-12.512c0.092-4.619,1.167-9.33,3.129-13.6C-29.066-57.3-25.842-56.589-22.632-56.513 M-49.781-44.78
		h12.502c0.277-5.148,1.358-9.686,3.402-14.312c-2.766-1.229-5.181-2.748-7.505-4.721C-46.559-58.646-49.419-51.97-49.781-44.78
		 M-39.861-65.231c2.055,1.797,4.366,3.391,6.874,4.374c2.129-4.168,5.075-7.739,8.477-10.847
		C-30.122-70.999-35.396-68.873-39.861-65.231 M-111.523-34.384h56.131c2.037,10.314,9.195,18.87,23.378,24.827
		c-1.608,4.908-7.134,9.413-12.845,9.413h-30.428c-4.65,0-8.317-3.909-9.819-7.027h30.954c1.872-0.34,1.971-1.857,0.081-2.039
		h-30.432c-3.917,0-7.503-3.368-9.539-6.998h35.434c1.793-0.299,1.793-1.803,0-2.056h-35.703c-3.575,0-6.879-4.204-8.219-7.034
		h39.193c1.958-0.263,1.958-2.057,0-2.136h-39.903C-106.374-27.434-109.407-30.825-111.523-34.384 M68.217-34.384H12.099
		c-2.067,10.314-9.206,18.87-23.405,24.827c1.619,4.908,7.142,9.413,12.869,9.413h30.424c4.653,0,8.308-3.909,9.827-7.027H10.85
		c-1.89-0.34-1.983-1.857-0.098-2.039h30.422c3.942,0,7.514-3.368,9.557-6.998H15.307c-1.795-0.299-1.795-1.803,0-2.056h35.702
		c3.578,0,6.856-4.204,8.21-7.034H20.032c-1.967-0.263-1.967-2.057,0-2.136h39.914C63.057-27.434,66.098-30.825,68.217-34.384
		 M4.947,43.704L22.964,7.06h11.781l7.414,36.645H31.007l-0.53-4.346H18.696l-1.882,4.346H4.947z M21.641,31.699h7.579
		l-1.968-13.415L21.641,31.699z M-18.438,43.704l4.101-27.559h-10.438l1.788-9.262H9.05l-1.764,9.262h-9.929l-4.016,27.559H-18.438z
		 M-66.65,43.704L-48.592,7.06h11.772l7.417,36.645H-40.49l-0.626-4.346h-11.775l-1.867,4.346H-66.65z M-49.946,31.699h7.589
		l-1.972-13.415L-49.946,31.699z M-85.928,43.704l7.316-36.645h11.959l-7.311,36.645H-85.928z"/>
	<path fill="#FFFFFF" d="M141.816-0.171c-0.869,1.285-2.66,2.678-6.146,2.678c-1.377,0-3.021-0.262-4.143-0.874
		c-0.264-0.161-0.666-0.417-1.182-0.883c-0.818-0.724-1.381-1.549-1.793-2.632c-0.357-1.029-0.408-1.854-0.408-2.937V-9.98h2.508
		v2.942c0,0.773-0.051,1.49,0,2.267c0.104,1.755,0.664,5.054,5.326,5.054c0.41,0,1.537,0,2.611-0.666
		c1.281-0.775,1.996-2.32,1.996-5.314c0-2.836-0.611-4.129-1.277-5.213c-1.334-2.062-3.738-4.385-4.102-4.693
		c-2.096-2.066-3.379-3.51-4.148-4.592c-0.869-1.187-2.049-3.251-2.049-6.758c0-0.209,0-1.705,0.203-2.734
		c0.359-2.064,1.539-5.318,6.611-5.318c0.559,0,2.607,0,4.252,1.033c2.504,1.652,2.504,4.748,2.504,7.379v2.632h-2.455v-3.251
		c0-1.288,0-1.702-0.156-2.426c-0.203-1.24-0.975-3.196-4.1-3.196c-0.357,0-1.535,0-2.561,0.618
		c-1.127,0.721-1.787,2.167-1.787,4.851c0,3.455,0.918,4.849,3.123,7.376c0.77,0.93,1.588,1.807,2.457,2.734
		c1.279,1.291,2.559,2.529,3.686,3.974c1.793,2.27,2.309,4.282,2.309,7.175C143.098-3.063,142.533-1.26,141.816-0.171"/>
	<path fill="#FFFFFF" d="M148.99,1.114c-0.564-0.668-0.619-1.291-0.619-2.115v-20.947h-2.711v-2.064h2.711v-6.709h2.203v6.709h3.889
		v2.064h-3.889v20.432c0,1.495,1.484,1.495,1.947,1.495c0.664,0,1.279-0.053,1.949-0.1v2.063
		C151.652,2.147,149.961,2.147,148.99,1.114"/>
	<path fill="#FFFFFF" d="M162.973-20.966c-2.098,1.236-3.127,4.076-3.328,4.592V1.942h-2.154v-25.957h2.1v4.545
		c0.564-1.291,0.973-1.754,1.537-2.43c0.92-0.979,1.793-1.754,3.842-2.785v2.943C164.305-21.534,163.531-21.329,162.973-20.966"/>
	<path fill="#FFFFFF" d="M176.854-12.456c-0.512,0.416-1.078,0.775-1.641,1.083c-0.871,0.52-1.736,0.931-2.555,1.395
		c-2.359,1.446-3.594,3.046-3.594,5.882c0,0.826,0.16,3.971,3.387,3.971c1.996,0,3.174-1.081,4.404-2.424v-9.906H176.854z
		 M177.568,1.218c-0.359-0.309-0.512-0.515-0.715-1.289c-0.719,0.564-2.357,2.014-4.971,2.014c-3.586,0-5.018-2.891-5.018-6.09
		c0-2.014,0.512-3.303,0.92-4.076c1.486-2.736,4.303-3.768,6.758-5.16c1.027-0.566,1.383-0.775,2.258-1.496v-2.941
		c0-1.341,0.053-2.889-1.23-3.768c-0.617-0.459-1.283-0.459-2.051-0.459c-1.895,0-2.561,0.824-2.918,1.648
		c-0.562,1.239-0.516,3.042-0.463,4.385h-2.201c0-2.84,0-3.975,0.621-5.312c1.275-2.893,4.451-2.836,5.273-2.836
		c1.078,0,2.049,0.205,3.023,0.722c1.996,1.132,2.199,2.941,2.199,5.003v17.443c0.102,0.924,0.82,0.874,1.539,0.874v2.065
		C178.953,1.942,178.182,1.786,177.568,1.218"/>
	<path fill="#FFFFFF" d="M185.25,1.114c-0.562-0.668-0.615-1.291-0.615-2.115v-20.947h-2.715v-2.064h2.715v-6.709h2.203v6.709h3.893
		v2.064h-3.893v20.432c0,1.495,1.484,1.495,1.945,1.495c0.666,0,1.281-0.053,1.949-0.1v2.063
		C187.916,2.147,186.225,2.147,185.25,1.114"/>
	<path fill="#FFFFFF" d="M202.816-17.407c0-2.268-0.559-3.402-1.436-4.078c-0.357-0.256-1.127-0.721-2.25-0.721
		c-0.363,0-1.381,0.054-2.256,0.721c-1.381,1.089-1.482,2.685-1.482,4.282v4.544h7.424V-17.407L202.816-17.407z M203.895-0.126
		c-1.59,2.115-3.992,2.115-4.814,2.115c-0.717,0-1.537-0.1-2.199-0.309c-0.666-0.204-2.512-1.081-3.23-3.145
		c-0.307-0.776-0.408-1.397-0.408-2.893v-13.619c0-0.416,0-1.344,0.303-2.424c0.463-1.496,1.742-3.766,5.533-3.766
		c2.764,0,4.201,1.237,4.92,2.27c1.072,1.649,1.021,3.971,1.021,5.879v5.209h-9.627v6.397c0,0.207,0,1.085,0.199,1.854
		c0.309,1.034,1.08,2.529,3.639,2.529c0.305,0,1.637-0.051,2.562-0.928c0.148-0.152,0.512-0.516,0.715-1.133
		c0.41-1.131,0.357-2.473,0.357-5.004h2.15v2.941C205.023-2.599,204.869-1.413,203.895-0.126"/>
	<path fill="#FFFFFF" d="M219.311-18.646c-0.361-1.961-1.846-3.664-3.996-3.613c-0.254,0-1.178,0.053-1.895,0.518
		c-1.588,1.082-1.588,2.94-1.588,4.59v11.971c0,1.549,0,3.299,1.332,4.336c0.871,0.617,1.689,0.617,2.1,0.617
		c0.719,0,2.354-0.309,3.383-2.064c0.256-0.464,0.408-0.826,0.664-1.805V-18.646z M221.104,6.224
		c-0.92,2.682-3.33,3.867-5.996,3.867c-1.895,0-4.25-0.723-5.123-2.633c-0.357-0.719-0.461-1.389-0.557-2.888h2.199
		c0.051,0.202,0,1.133,0.355,1.907c0.773,1.496,2.867,1.496,3.176,1.496c0.512,0,2.916-0.155,3.791-2.17
		c0.203-0.463,0.305-0.928,0.305-1.91v-4.277c-0.613,0.619-1.947,2.268-4.51,2.268c-0.457,0-1.688-0.1-2.764-0.771
		c-2.303-1.445-2.303-4.023-2.303-6.396v-13.108c0-0.982,0.051-1.703,0.357-2.681c1.02-3.044,4.047-3.199,4.916-3.199
		c2.561,0,3.787,1.651,4.303,2.376v-2.117h2.201V3.175C221.461,3.644,221.566,4.88,221.104,6.224"/>
	<path fill="#FFFFFF" d="M226.736,1.942h2.154v-25.957h-2.154V1.942z M226.736-27.054h2.199v-4.023h-2.199V-27.054z"/>
	<path fill="#FFFFFF" d="M245.381-1.675c-0.818,2.74-3.277,3.77-5.941,3.77c-0.562,0-1.998-0.054-3.377-0.982
		c-2.311-1.547-2.414-4.123-2.414-6.602v-11.97c0-1.132,0.053-1.856,0.414-2.94c1.125-3.455,4.506-3.615,5.527-3.615
		c5.941,0,5.893,5.369,5.893,6.965v2.273h-2.152v-2.014c0-1.131-0.104-1.751-0.207-2.269c-0.406-1.81-1.533-3.044-3.479-3.044
		c-2.414,0-3.232,1.648-3.482,2.476c-0.309,0.878-0.309,2.168-0.309,2.321v11.145c0,0.104-0.053,2.477,0.355,3.762
		c0.359,1.031,1.229,2.428,3.689,2.428c2.252,0,3.074-1.441,3.328-2.269c0.209-0.621,0.254-1.292,0.254-1.963v-3.765h2.203v3.355
		C245.689-3.011,245.637-2.444,245.381-1.675"/>
	<path fill="#FFFFFF" d="M140.586,16.206c0-3.255-0.049-5.006-1.48-6.09c-0.924-0.723-1.742-0.881-3.848-0.881h-3.842v15.58h4.098
		c1.385,0,2.818-0.151,3.896-1.283c1.377-1.395,1.174-3.867,1.174-4.186v-3.141H140.586z M141.611,24.615
		c-1.844,2.216-4.867,2.315-6.457,2.315h-3.686v16.617h-2.51V7.123h5.635c2.201,0,4.662-0.101,6.502,1.445
		c1.953,1.602,1.953,3.974,1.953,6.655v4.123C143.049,21.312,142.996,22.964,141.611,24.615"/>
	<path fill="#FFFFFF" d="M156.623,29.153c-0.516,0.412-1.078,0.774-1.641,1.087c-0.875,0.511-1.744,0.926-2.562,1.393
		c-2.355,1.443-3.586,3.039-3.586,5.879c0,0.824,0.156,3.973,3.387,3.973c1.992,0,3.174-1.082,4.404-2.425v-9.906H156.623z
		 M157.338,42.828c-0.357-0.31-0.518-0.515-0.715-1.289c-0.719,0.563-2.357,2.009-4.971,2.009c-3.586,0-5.018-2.887-5.018-6.085
		c0-2.014,0.51-3.303,0.918-4.079c1.482-2.736,4.305-3.766,6.762-5.16c1.021-0.568,1.379-0.771,2.254-1.495v-2.94
		c0-1.346,0.055-2.894-1.232-3.762c-0.613-0.469-1.279-0.469-2.047-0.469c-1.895,0-2.561,0.825-2.92,1.654
		c-0.561,1.236-0.514,3.041-0.461,4.383h-2.199c0-2.84,0-3.973,0.615-5.312c1.281-2.89,4.453-2.84,5.275-2.84
		c1.076,0,2.049,0.207,3.025,0.724c1.992,1.134,2.201,2.94,2.201,5.006v17.437c0.1,0.931,0.818,0.88,1.535,0.88v2.067
		C158.719,43.548,157.953,43.394,157.338,42.828"/>
	<path fill="#FFFFFF" d="M169.422,20.638c-2.102,1.241-3.125,4.077-3.324,4.592v18.318h-2.156V17.595h2.1v4.543
		c0.562-1.289,0.975-1.755,1.537-2.429c0.922-0.98,1.793-1.752,3.842-2.784v2.939C170.754,20.071,169.988,20.282,169.422,20.638"/>
	<path fill="#FFFFFF" d="M175.672,42.723c-0.559-0.667-0.611-1.291-0.611-2.114v-20.95h-2.719v-2.06h2.719v-6.71h2.201v6.71h3.889
		v2.06h-3.889V40.09c0,1.498,1.484,1.498,1.943,1.498c0.67,0,1.283-0.049,1.949-0.104v2.071
		C178.338,43.755,176.65,43.755,175.672,42.723"/>
	<path fill="#FFFFFF" d="M193.906,43.548V22.755c-0.053-0.205-0.053-0.924-0.256-1.599c-0.256-0.671-1.021-2.011-2.918-1.96
		c-1.486,0-2.816,0.771-3.635,1.96c-0.256,0.361-0.357,0.562-0.666,1.292v21.1h-2.152V17.595h2.152v2.477
		c0.41-0.671,0.719-0.986,0.975-1.243c1.377-1.392,3.07-1.547,3.789-1.547c2.1,0.055,3.992,1.087,4.611,3.302
		c0.199,0.723,0.252,1.396,0.252,2.115v20.846h-2.152V43.548z"/>
	<path fill="#FFFFFF" d="M210.295,24.204c0-2.275-0.562-3.405-1.438-4.081c-0.355-0.255-1.123-0.721-2.248-0.721
		c-0.361,0-1.383,0.05-2.256,0.721c-1.379,1.089-1.486,2.685-1.486,4.283v4.542h7.422v-4.744H210.295z M211.371,41.484
		c-1.588,2.116-3.994,2.116-4.814,2.116c-0.719,0-1.537-0.102-2.203-0.312c-0.666-0.201-2.512-1.079-3.225-3.145
		c-0.305-0.776-0.41-1.395-0.41-2.893V23.634c0-0.416,0-1.347,0.305-2.426c0.459-1.493,1.738-3.771,5.531-3.771
		c2.768,0,4.197,1.245,4.918,2.278c1.072,1.649,1.023,3.97,1.023,5.878v5.209h-9.631v6.399c0,0.205,0,1.081,0.205,1.853
		c0.305,1.032,1.074,2.532,3.633,2.532c0.307,0,1.637-0.055,2.562-0.933c0.156-0.152,0.512-0.513,0.717-1.131
		c0.406-1.132,0.359-2.474,0.359-5.005h2.15v2.941C212.5,39.01,212.348,40.195,211.371,41.484"/>
	<path fill="#FFFFFF" d="M222.742,20.638c-2.098,1.241-3.123,4.077-3.324,4.592v18.318h-2.156V17.595h2.1v4.543
		c0.562-1.289,0.975-1.755,1.539-2.429c0.922-0.98,1.791-1.752,3.84-2.784v2.939C224.072,20.071,223.307,20.282,222.742,20.638"/>
	<rect x="96.967" y="-34.302" fill="#FFFFFF" width="2.127" height="77.914"/>
</g>
</svg>
