<?xml version="1.0" encoding="utf-8"?>
<!-- Generator: Adobe Illustrator 16.0.0, SVG Export Plug-In . SVG Version: 6.00 Build 0)  -->
<!DOCTYPE svg PUBLIC "-//W3C//DTD SVG 1.1//EN" "http://www.w3.org/Graphics/SVG/1.1/DTD/svg11.dtd">
<svg version="1.1" id="Layer_1" xmlns="http://www.w3.org/2000/svg" xmlns:xlink="http://www.w3.org/1999/xlink" x="0px" y="0px"
	 width="134.16px" height="52px" viewBox="0 0 134.16 52" enable-background="new 0 0 134.16 52" xml:space="preserve">
<path fill="#FFFFFF" d="M35.213,23.545c1.166-0.98,2.225-2.286,2.915-3.689c-0.941-0.308-1.94-0.526-2.915-0.526V23.545z
	 M34.498,23.508c-1.192-0.943-2.257-2.249-2.948-3.652c0.945-0.337,1.942-0.526,2.948-0.526V23.508z M35.213,4.705
	c1.166,0.959,2.225,2.232,2.915,3.637c-0.941,0.349-1.94,0.575-2.915,0.575V4.705z M34.498,4.705
	c-1.192,0.959-2.257,2.263-2.948,3.637c0.945,0.315,1.942,0.575,2.948,0.575V4.705z M35.213,18.585V14.46h4.356
	c0,1.653-0.405,3.272-1.1,4.777C37.469,18.856,36.281,18.614,35.213,18.585 M44.702,14.46h-4.381
	c-0.061,1.819-0.445,3.431-1.157,5.059c0.936,0.435,1.781,0.966,2.594,1.643C43.545,19.362,44.607,16.956,44.702,14.46
	 M41.227,21.638c-0.691-0.598-1.562-1.153-2.408-1.496c-0.787,1.463-1.759,2.678-2.977,3.775
	C37.815,23.658,39.664,22.917,41.227,21.638 M34.498,18.585V14.46H30.11c0.032,1.653,0.409,3.309,1.097,4.777
	C32.241,18.856,33.372,18.614,34.498,18.585 M24.976,14.46h4.385c0.097,1.819,0.476,3.408,1.193,5.059
	c-0.97,0.435-1.817,0.966-2.632,1.643C26.136,19.362,25.103,17.021,24.976,14.46 M28.455,21.638
	c0.721-0.562,1.565-1.186,2.411-1.496c0.78,1.463,1.755,2.678,2.973,3.775C31.871,23.658,29.987,22.917,28.455,21.638 M35.213,9.628
	v4.115h4.356c0-1.652-0.405-3.24-1.1-4.77C37.438,9.352,36.31,9.601,35.213,9.628 M44.702,13.743h-4.381
	c-0.061-1.773-0.469-3.433-1.157-5.02c0.936-0.431,1.811-0.997,2.594-1.656C43.635,8.943,44.607,11.28,44.702,13.743 M41.227,6.57
	c-0.718,0.63-1.562,1.189-2.408,1.534c-0.787-1.503-1.759-2.685-2.977-3.804C37.815,4.547,39.664,5.293,41.227,6.57 M34.498,9.628
	v4.115H30.11c0.032-1.62,0.409-3.273,1.097-4.77C32.241,9.352,33.372,9.601,34.498,9.628 M24.976,13.743h4.385
	c0.097-1.806,0.476-3.397,1.193-5.02c-0.97-0.431-1.817-0.964-2.632-1.656C26.106,8.88,25.103,11.221,24.976,13.743 M28.455,6.57
	c0.721,0.63,1.532,1.189,2.411,1.534c0.747-1.462,1.78-2.714,2.973-3.804C31.871,4.547,30.021,5.293,28.455,6.57 M3.321,17.389
	h19.687c0.714,3.618,3.225,6.619,8.199,8.708c-0.564,1.721-2.502,3.302-4.505,3.302H16.03c-1.631,0-2.917-1.371-3.444-2.466h10.857
	c0.656-0.119,0.691-0.651,0.028-0.714H12.798c-1.374,0-2.632-1.182-3.346-2.455H21.88c0.629-0.105,0.629-0.632,0-0.721H9.358
	c-1.254,0-2.413-1.474-2.883-2.467h13.746c0.687-0.092,0.687-0.721,0-0.749H6.226C5.127,19.827,4.063,18.637,3.321,17.389
	 M66.362,17.389H46.679c-0.725,3.618-3.229,6.619-8.209,8.708c0.568,1.721,2.505,3.302,4.514,3.302h10.671
	c1.632,0,2.914-1.371,3.446-2.466H46.241c-0.663-0.119-0.695-0.651-0.034-0.714h10.67c1.383,0,2.635-1.182,3.352-2.455H47.804
	c-0.629-0.105-0.629-0.632,0-0.721h12.522c1.255,0,2.405-1.474,2.88-2.467H49.462c-0.69-0.092-0.69-0.721,0-0.749h13.999
	C64.552,19.827,65.618,18.637,66.362,17.389 M44.171,44.777l6.319-12.852h4.132l2.6,12.852h-3.911l-0.186-1.524h-4.132l-0.66,1.524
	H44.171z M50.026,40.567h2.658l-0.69-4.706L50.026,40.567z M35.969,44.777l1.438-9.666h-3.661l0.627-3.248h11.237l-0.619,3.248
	h-3.482L40.1,44.777H35.969z M19.059,44.777l6.334-12.852h4.129l2.601,12.852h-3.888l-0.22-1.524h-4.13l-0.655,1.524H19.059z
	 M24.918,40.567h2.662l-0.692-4.706L24.918,40.567z M12.298,44.777l2.566-12.852h4.194l-2.564,12.852H12.298z"/>
<path fill="#FFFFFF" d="M92.176,29.388c-0.306,0.452-0.934,0.94-2.156,0.94c-0.484,0-1.06-0.091-1.454-0.307
	c-0.091-0.056-0.233-0.146-0.413-0.309c-0.288-0.254-0.485-0.543-0.63-0.923c-0.125-0.361-0.143-0.65-0.143-1.03v-1.811h0.88v1.032
	c0,0.271-0.018,0.523,0,0.796c0.036,0.615,0.233,1.772,1.868,1.772c0.143,0,0.539,0,0.916-0.234c0.449-0.272,0.7-0.814,0.7-1.864
	c0-0.995-0.215-1.448-0.448-1.828c-0.468-0.723-1.312-1.538-1.438-1.646c-0.736-0.725-1.186-1.231-1.455-1.611
	c-0.306-0.416-0.719-1.14-0.719-2.37c0-0.073,0-0.598,0.071-0.959c0.126-0.724,0.54-1.865,2.318-1.865c0.196,0,0.916,0,1.491,0.362
	c0.88,0.58,0.88,1.665,0.88,2.588v0.923h-0.862v-1.14c0-0.452,0-0.597-0.054-0.851c-0.072-0.435-0.342-1.121-1.438-1.121
	c-0.126,0-0.539,0-0.898,0.217c-0.396,0.253-0.628,0.76-0.628,1.701c0,1.212,0.323,1.701,1.096,2.587
	c0.27,0.326,0.557,0.634,0.861,0.959c0.449,0.453,0.898,0.887,1.294,1.394c0.629,0.796,0.809,1.502,0.809,2.516
	C92.625,28.374,92.427,29.007,92.176,29.388"/>
<path fill="#FFFFFF" d="M94.691,29.84c-0.198-0.235-0.216-0.453-0.216-0.742v-7.347h-0.952v-0.724h0.952v-2.353h0.772v2.353h1.365
	v0.724h-1.365v7.166c0,0.525,0.521,0.525,0.682,0.525c0.234,0,0.45-0.019,0.684-0.036v0.724
	C95.625,30.202,95.032,30.202,94.691,29.84"/>
<path fill="#FFFFFF" d="M99.596,22.095c-0.737,0.434-1.097,1.43-1.168,1.611v6.424h-0.755v-9.104h0.736v1.594
	c0.198-0.453,0.342-0.615,0.539-0.852c0.324-0.343,0.629-0.615,1.348-0.977v1.032C100.062,21.896,99.792,21.968,99.596,22.095"/>
<path fill="#FFFFFF" d="M104.464,25.08c-0.18,0.146-0.378,0.272-0.576,0.38c-0.305,0.182-0.609,0.326-0.896,0.489
	c-0.827,0.507-1.259,1.068-1.259,2.063c0,0.29,0.055,1.393,1.187,1.393c0.7,0,1.113-0.379,1.545-0.85V25.08z M104.715,29.876
	c-0.126-0.108-0.18-0.181-0.251-0.452c-0.252,0.198-0.827,0.706-1.743,0.706c-1.258,0-1.76-1.014-1.76-2.136
	c0-0.706,0.179-1.158,0.323-1.43c0.521-0.959,1.509-1.321,2.371-1.809c0.358-0.199,0.484-0.272,0.79-0.525v-1.032
	c0-0.47,0.019-1.013-0.432-1.321c-0.215-0.161-0.449-0.161-0.718-0.161c-0.665,0-0.898,0.289-1.024,0.578
	c-0.197,0.435-0.18,1.067-0.161,1.538h-0.773c0-0.996,0-1.394,0.217-1.863c0.448-1.015,1.562-0.995,1.851-0.995
	c0.377,0,0.718,0.072,1.06,0.253c0.7,0.397,0.772,1.032,0.772,1.755v6.117c0.035,0.325,0.286,0.307,0.538,0.307v0.725
	C105.2,30.13,104.93,30.075,104.715,29.876"/>
<path fill="#FFFFFF" d="M107.409,29.84c-0.197-0.235-0.216-0.453-0.216-0.742v-7.347h-0.952v-0.724h0.952v-2.353h0.773v2.353h1.365
	v0.724h-1.365v7.166c0,0.525,0.521,0.525,0.682,0.525c0.234,0,0.449-0.019,0.684-0.036v0.724
	C108.344,30.202,107.751,30.202,107.409,29.84"/>
<path fill="#FFFFFF" d="M113.571,23.344c0-0.796-0.197-1.194-0.504-1.431c-0.125-0.09-0.395-0.253-0.79-0.253
	c-0.126,0-0.484,0.019-0.79,0.253c-0.485,0.382-0.521,0.942-0.521,1.502v1.594h2.604V23.344z M113.948,29.405
	c-0.557,0.742-1.4,0.742-1.688,0.742c-0.251,0-0.539-0.036-0.772-0.109c-0.233-0.071-0.881-0.379-1.132-1.103
	c-0.108-0.272-0.144-0.489-0.144-1.014v-4.777c0-0.146,0-0.471,0.107-0.85c0.161-0.525,0.611-1.321,1.94-1.321
	c0.97,0,1.473,0.434,1.725,0.796c0.377,0.579,0.359,1.393,0.359,2.062v1.827h-3.377v2.244c0,0.072,0,0.38,0.07,0.651
	c0.108,0.362,0.379,0.887,1.276,0.887c0.108,0,0.575-0.018,0.899-0.326c0.053-0.054,0.179-0.18,0.251-0.397
	c0.144-0.397,0.125-0.868,0.125-1.755h0.755v1.031C114.344,28.537,114.29,28.953,113.948,29.405"/>
<path fill="#FFFFFF" d="M119.355,22.909c-0.126-0.688-0.647-1.285-1.401-1.267c-0.09,0-0.413,0.018-0.665,0.181
	c-0.557,0.38-0.557,1.032-0.557,1.61v4.199c0,0.543,0,1.157,0.467,1.52c0.306,0.217,0.593,0.217,0.737,0.217
	c0.252,0,0.826-0.108,1.186-0.724c0.09-0.163,0.144-0.29,0.233-0.633V22.909z M119.984,31.632c-0.323,0.94-1.168,1.356-2.103,1.356
	c-0.664,0-1.49-0.253-1.797-0.923c-0.125-0.253-0.161-0.488-0.196-1.013h0.772c0.018,0.071,0,0.397,0.125,0.669
	c0.271,0.524,1.006,0.524,1.114,0.524c0.179,0,1.023-0.054,1.329-0.76c0.072-0.163,0.107-0.326,0.107-0.67v-1.501
	c-0.215,0.217-0.682,0.796-1.581,0.796c-0.16,0-0.593-0.036-0.97-0.271c-0.808-0.507-0.808-1.411-0.808-2.243v-4.598
	c0-0.344,0.018-0.597,0.126-0.94c0.358-1.068,1.419-1.122,1.724-1.122c0.898,0,1.329,0.579,1.509,0.833v-0.742h0.772v9.536
	C120.109,30.727,120.146,31.16,119.984,31.632"/>
<path fill="#FFFFFF" d="M121.96,30.13h0.755v-9.104h-0.755V30.13z M121.96,19.96h0.771v-1.411h-0.771V19.96z"/>
<path fill="#FFFFFF" d="M128.499,28.862c-0.287,0.96-1.149,1.321-2.084,1.321c-0.197,0-0.701-0.018-1.185-0.344
	c-0.81-0.543-0.846-1.447-0.846-2.316v-4.198c0-0.397,0.019-0.651,0.145-1.031c0.395-1.212,1.581-1.268,1.939-1.268
	c2.084,0,2.066,1.883,2.066,2.443v0.797h-0.754v-0.706c0-0.397-0.037-0.614-0.073-0.796c-0.143-0.634-0.538-1.067-1.221-1.067
	c-0.845,0-1.132,0.578-1.221,0.868c-0.108,0.308-0.108,0.76-0.108,0.814v3.909c0,0.036-0.018,0.868,0.125,1.319
	c0.126,0.362,0.431,0.852,1.294,0.852c0.79,0,1.078-0.506,1.167-0.796c0.073-0.217,0.09-0.453,0.09-0.688v-1.32h0.773v1.176
	C128.607,28.393,128.589,28.592,128.499,28.862"/>
<path fill="#FFFFFF" d="M91.744,35.133c0-1.142-0.017-1.756-0.52-2.136c-0.324-0.254-0.611-0.309-1.349-0.309h-1.347v5.465h1.437
	c0.485,0,0.988-0.054,1.366-0.451c0.484-0.489,0.412-1.357,0.412-1.467V35.133z M92.104,38.082
	c-0.647,0.777-1.707,0.813-2.265,0.813h-1.293v5.827h-0.88V31.947h1.977c0.771,0,1.634-0.036,2.28,0.507
	c0.684,0.561,0.684,1.394,0.684,2.334v1.447C92.607,36.924,92.589,37.503,92.104,38.082"/>
<path fill="#FFFFFF" d="M97.368,39.674c-0.181,0.145-0.378,0.271-0.575,0.38c-0.306,0.181-0.611,0.326-0.898,0.489
	c-0.827,0.507-1.258,1.067-1.258,2.062c0,0.289,0.054,1.394,1.187,1.394c0.699,0,1.113-0.38,1.545-0.851V39.674z M97.619,44.47
	c-0.125-0.109-0.181-0.181-0.251-0.453c-0.252,0.199-0.826,0.706-1.743,0.706c-1.258,0-1.76-1.013-1.76-2.135
	c0-0.706,0.179-1.158,0.322-1.431c0.521-0.959,1.51-1.32,2.371-1.809c0.359-0.199,0.485-0.271,0.791-0.525v-1.031
	c0-0.471,0.019-1.014-0.432-1.32c-0.215-0.163-0.448-0.163-0.718-0.163c-0.664,0-0.898,0.289-1.024,0.579
	c-0.197,0.434-0.18,1.067-0.162,1.538h-0.771c0-0.996,0-1.394,0.216-1.864c0.449-1.013,1.562-0.996,1.85-0.996
	c0.377,0,0.719,0.073,1.061,0.254c0.699,0.398,0.771,1.031,0.771,1.756v6.116c0.036,0.325,0.288,0.308,0.539,0.308v0.724
	C98.104,44.723,97.835,44.669,97.619,44.47"/>
<path fill="#FFFFFF" d="M101.858,36.688c-0.737,0.434-1.096,1.429-1.167,1.61v6.424h-0.755V35.62h0.736v1.593
	c0.197-0.452,0.342-0.615,0.539-0.851c0.323-0.344,0.629-0.615,1.348-0.977v1.031C102.325,36.488,102.057,36.562,101.858,36.688"/>
<path fill="#FFFFFF" d="M104.05,44.434c-0.197-0.235-0.215-0.453-0.215-0.742v-7.348h-0.953v-0.723h0.953v-2.353h0.772v2.353h1.364
	v0.723h-1.364v7.166c0,0.525,0.521,0.525,0.682,0.525c0.234,0,0.45-0.018,0.683-0.036v0.725
	C104.984,44.795,104.392,44.795,104.05,44.434"/>
<path fill="#FFFFFF" d="M110.445,44.723V37.43c-0.018-0.072-0.018-0.325-0.09-0.561c-0.09-0.235-0.358-0.705-1.023-0.688
	c-0.521,0-0.988,0.271-1.276,0.688c-0.089,0.127-0.125,0.198-0.233,0.453v7.4h-0.755v-9.102h0.755v0.868
	c0.145-0.235,0.252-0.345,0.342-0.435c0.484-0.489,1.077-0.543,1.329-0.543c0.736,0.019,1.401,0.38,1.617,1.158
	c0.071,0.254,0.089,0.489,0.089,0.742v7.311H110.445z"/>
<path fill="#FFFFFF" d="M116.193,37.937c0-0.796-0.197-1.193-0.503-1.43c-0.126-0.09-0.395-0.253-0.79-0.253
	c-0.126,0-0.484,0.018-0.791,0.253c-0.484,0.381-0.521,0.941-0.521,1.502v1.593h2.604V37.937z M116.57,43.999
	c-0.556,0.742-1.4,0.742-1.688,0.742c-0.252,0-0.539-0.036-0.773-0.109c-0.233-0.072-0.88-0.379-1.131-1.103
	c-0.107-0.272-0.144-0.489-0.144-1.015v-4.776c0-0.146,0-0.472,0.107-0.851c0.161-0.524,0.61-1.322,1.94-1.322
	c0.97,0,1.473,0.436,1.724,0.798c0.377,0.579,0.36,1.393,0.36,2.062v1.827h-3.378v2.244c0,0.072,0,0.38,0.072,0.65
	c0.107,0.362,0.377,0.888,1.275,0.888c0.107,0,0.574-0.019,0.898-0.326c0.054-0.054,0.18-0.18,0.251-0.398
	c0.144-0.396,0.126-0.867,0.126-1.755h0.755v1.032C116.967,43.131,116.913,43.547,116.57,43.999"/>
<path fill="#FFFFFF" d="M120.559,36.688c-0.736,0.434-1.096,1.429-1.167,1.61v6.424h-0.755V35.62h0.736v1.593
	c0.198-0.452,0.342-0.615,0.54-0.851c0.323-0.344,0.628-0.615,1.347-0.977v1.031C121.026,36.488,120.757,36.562,120.559,36.688"/>
<rect x="76.446" y="17.418" fill="#FFFFFF" width="0.745" height="27.327"/>
</svg>
