<?xml version="1.0" encoding="utf-8"?>
<!-- Generator: Adobe Illustrator 16.0.0, SVG Export Plug-In . SVG Version: 6.00 Build 0)  -->
<!DOCTYPE svg PUBLIC "-//W3C//DTD SVG 1.1//EN" "http://www.w3.org/Graphics/SVG/1.1/DTD/svg11.dtd">
<svg version="1.1" id="Layer_1" xmlns="http://www.w3.org/2000/svg" xmlns:xlink="http://www.w3.org/1999/xlink" x="0px" y="0px"
	 width="424.667px" height="60.333px" viewBox="0 0 424.667 60.333" enable-background="new 0 0 424.667 60.333"
	 xml:space="preserve">
<g>
	<rect x="11.171" y="10.158" fill="#FFFFFF" width="40.829" height="40.83"/>
	<g>
		<path fill="#6A737B" d="M70.76,13.302c0.721,0,1.42,0.06,2.094,0.177c0.673,0.117,1.271,0.306,1.789,0.565
			c0.518,0.259,0.932,0.597,1.246,1.011c0.314,0.417,0.47,0.929,0.47,1.542c0,0.738-0.227,1.305-0.681,1.705
			c-0.456,0.401-0.998,0.711-1.625,0.932v0.044c0.737,0.222,1.36,0.57,1.87,1.049c0.51,0.478,0.765,1.164,0.765,2.058
			c0,0.47-0.102,0.906-0.305,1.308c-0.205,0.398-0.506,0.748-0.906,1.045c-0.401,0.299-0.891,0.53-1.471,0.693
			c-0.58,0.167-1.239,0.249-1.977,0.249h-8.637v-0.425c0.44,0,0.66-0.14,0.66-0.423V14.15c0-0.284-0.22-0.424-0.66-0.424v-0.424
			H70.76z M71.231,18.149c0.705,0,1.29-0.09,1.753-0.27c0.462-0.181,0.694-0.562,0.694-1.142c0-0.581-0.232-0.961-0.694-1.142
			c-0.463-0.18-1.048-0.27-1.753-0.27h-4.495v2.823H71.231z M71.231,23.514c0.988,0,1.697-0.152,2.128-0.458
			c0.432-0.306,0.647-0.709,0.647-1.211s-0.216-0.907-0.647-1.212c-0.432-0.305-1.141-0.458-2.128-0.458h-4.495v3.341H71.231z"/>
		<path fill="#6A737B" d="M84.118,16.907c-0.304,0-0.457,0.104-0.457,0.312v4.76c0,0.665,0.243,1.2,0.728,1.602
			c0.485,0.401,1.226,0.602,2.224,0.602s1.739-0.201,2.225-0.602c0.485-0.402,0.727-0.937,0.727-1.602v-4.76
			c0-0.208-0.173-0.312-0.519-0.312v-0.375h2.889v0.375c-0.305,0-0.458,0.104-0.458,0.312v5.26c0,0.43-0.097,0.84-0.291,1.237
			c-0.194,0.394-0.49,0.745-0.883,1.049c-0.396,0.304-0.902,0.545-1.518,0.717c-0.618,0.173-1.342,0.26-2.173,0.26
			c-0.831,0-1.556-0.087-2.172-0.26c-0.616-0.172-1.121-0.413-1.517-0.717c-0.394-0.304-0.689-0.655-0.883-1.049
			c-0.194-0.396-0.291-0.807-0.291-1.237v-5.26c0-0.11-0.041-0.19-0.125-0.24c-0.083-0.046-0.243-0.071-0.478-0.071v-0.375h2.972
			V16.907z"/>
		<path fill="#6A737B" d="M101.871,16.533c1.233,0,2.196,0.206,2.89,0.614c0.692,0.408,1.039,1.105,1.039,2.09
			c0,0.374-0.069,0.705-0.208,0.997c-0.139,0.291-0.322,0.544-0.551,0.76c-0.228,0.214-0.481,0.386-0.758,0.518
			c-0.277,0.131-0.561,0.233-0.854,0.303l2.038,2.972c0.111,0.154,0.232,0.267,0.363,0.343c0.131,0.076,0.274,0.135,0.427,0.176
			v0.375h-3.181v-0.375c0.18,0,0.271-0.062,0.271-0.186c0-0.139-0.104-0.354-0.311-0.646l-1.643-2.454h-2.889v2.973
			c0,0.111,0.044,0.19,0.134,0.239c0.09,0.049,0.178,0.072,0.26,0.072v0.375h-2.764v-0.375c0.25,0,0.375-0.104,0.375-0.312v-7.774
			c0-0.208-0.125-0.312-0.375-0.312v-0.375H101.871z M101.829,20.482c1.357,0,2.037-0.428,2.037-1.288
			c0-0.348-0.163-0.621-0.489-0.821c-0.325-0.201-0.842-0.303-1.548-0.303h-3.285v2.412H101.829z"/>
		<path fill="#6A737B" d="M109.936,25.305c0.25,0,0.375-0.104,0.375-0.312v-7.774c0-0.208-0.125-0.312-0.375-0.312v-0.375h3.057
			v0.375c-0.097,0.014-0.146,0.048-0.146,0.104c0,0.07,0.152,0.256,0.458,0.562l4.989,5.28v-5.635c0-0.208-0.138-0.312-0.416-0.312
			v-0.375h2.537v0.375c-0.251,0-0.375,0.104-0.375,0.312v7.774c0,0.208,0.124,0.312,0.375,0.312v0.375h-2.704v-0.375
			c0.097,0,0.146-0.034,0.146-0.104c0-0.056-0.065-0.153-0.197-0.291c-0.133-0.139-0.28-0.298-0.447-0.479l-5.155-5.487v6.049
			c0,0.208,0.145,0.312,0.437,0.312v0.375h-2.558V25.305z"/>
		<path fill="#6A737B" d="M127.293,24.993c0,0.111,0.032,0.19,0.095,0.239c0.061,0.049,0.133,0.072,0.216,0.072v0.375h-2.619v-0.375
			c0.083,0,0.156-0.023,0.218-0.072c0.062-0.049,0.094-0.128,0.094-0.239v-7.774c0-0.11-0.032-0.19-0.094-0.24
			c-0.062-0.046-0.135-0.071-0.218-0.071v-0.375h2.619v0.375c-0.083,0-0.155,0.025-0.216,0.071c-0.063,0.05-0.095,0.13-0.095,0.24
			v2.932h5.571v-2.932c0-0.11-0.031-0.19-0.095-0.24c-0.062-0.046-0.134-0.071-0.217-0.071v-0.375h2.62v0.375
			c-0.083,0-0.155,0.025-0.218,0.071c-0.063,0.05-0.094,0.13-0.094,0.24v7.774c0,0.111,0.031,0.19,0.094,0.239
			c0.063,0.049,0.135,0.072,0.218,0.072v0.375h-2.62v-0.375c0.083,0,0.156-0.023,0.217-0.072c0.063-0.049,0.095-0.128,0.095-0.239
			v-3.14h-5.571V24.993z"/>
		<path fill="#6A737B" d="M138.372,25.305c0.167-0.027,0.303-0.107,0.406-0.238c0.104-0.132,0.183-0.253,0.239-0.364l3.098-6.756
			c0.083-0.193,0.149-0.35,0.198-0.467c0.048-0.119,0.072-0.232,0.072-0.343c0-0.084-0.017-0.136-0.053-0.158
			c-0.034-0.021-0.071-0.044-0.113-0.071v-0.375h3.139v0.375c-0.041,0.027-0.086,0.048-0.136,0.062
			c-0.047,0.014-0.071,0.069-0.071,0.167c0,0.082,0.031,0.183,0.092,0.3c0.063,0.118,0.128,0.254,0.198,0.406l3.367,7.067
			c0.07,0.125,0.146,0.216,0.229,0.271c0.084,0.056,0.174,0.097,0.271,0.124v0.375h-2.952v-0.312c0.07,0,0.142-0.021,0.219-0.063
			c0.075-0.041,0.115-0.118,0.115-0.228c0-0.084-0.014-0.16-0.043-0.229c-0.027-0.07-0.063-0.159-0.103-0.271l-0.562-1.185h-4.448
			l-0.583,1.124c-0.055,0.11-0.1,0.211-0.134,0.3c-0.036,0.09-0.052,0.171-0.052,0.239c0,0.111,0.034,0.181,0.104,0.208
			c0.068,0.027,0.166,0.041,0.291,0.041v0.375h-2.787V25.305z M145.316,21.854l-1.685-3.491l-1.476,3.491H145.316z"/>
		<path fill="#6A737B" d="M152.591,25.305c0.069-0.014,0.128-0.041,0.178-0.083c0.049-0.041,0.072-0.138,0.072-0.291v-7.608
			c0-0.194-0.017-0.312-0.051-0.354c-0.035-0.042-0.102-0.062-0.198-0.062v-0.375h2.89v0.375c-0.138,0-0.208,0.062-0.208,0.186
			c0,0.057,0.024,0.129,0.073,0.218c0.05,0.092,0.122,0.22,0.218,0.385l2.536,4.678l2.557-4.657
			c0.097-0.165,0.173-0.302,0.228-0.406c0.056-0.103,0.084-0.175,0.084-0.218c0-0.124-0.056-0.186-0.167-0.186v-0.375h2.931v0.375
			c-0.07,0-0.136,0.018-0.198,0.051c-0.062,0.035-0.093,0.109-0.093,0.219v7.816c0,0.111,0.031,0.19,0.093,0.239
			c0.062,0.049,0.128,0.072,0.198,0.072v0.375h-2.412v-0.375c0.292,0,0.417-0.104,0.375-0.312v-5.842h-0.041l-3.534,6.528h-0.167
			l-3.347-6.528h0.021h-0.042v5.842c0,0.208,0.117,0.312,0.354,0.312v0.375h-2.35V25.305z"/>
		<path fill="#6A737B" d="M178.001,21.796l0.235,0.118c0,0.142,0.032,0.269,0.094,0.377c0.11,0.188,0.326,0.374,0.648,0.553
			c0.32,0.181,0.69,0.342,1.105,0.483c0.417,0.14,0.851,0.253,1.307,0.341c0.455,0.086,0.862,0.129,1.223,0.129
			c0.267,0,0.611-0.021,1.035-0.059c0.424-0.04,0.84-0.122,1.249-0.248c0.408-0.125,0.76-0.296,1.058-0.517
			c0.298-0.22,0.449-0.51,0.449-0.871c0-0.361-0.138-0.627-0.414-0.8c-0.273-0.173-0.634-0.297-1.082-0.377
			c-0.448-0.077-0.957-0.129-1.529-0.153c-0.574-0.022-1.158-0.058-1.753-0.105c-0.596-0.047-1.181-0.125-1.753-0.236
			c-0.573-0.109-1.082-0.294-1.529-0.553c-0.447-0.258-0.809-0.612-1.083-1.059c-0.275-0.447-0.412-1.031-0.412-1.752
			c0-0.486,0.113-0.965,0.341-1.436c0.227-0.471,0.577-0.887,1.047-1.247c0.471-0.36,1.067-0.656,1.79-0.883
			c0.72-0.228,1.567-0.341,2.54-0.341c0.831,0,1.554,0.063,2.166,0.189s1.141,0.257,1.588,0.399c0.447,0.14,0.824,0.275,1.129,0.4
			c0.307,0.125,0.562,0.187,0.766,0.187c0.219,0,0.375-0.047,0.47-0.141l0.283,0.188l-1.624,2.94l-0.235-0.094
			c-0.032-0.217-0.095-0.399-0.19-0.541c-0.125-0.188-0.333-0.374-0.623-0.553c-0.291-0.18-0.632-0.34-1.024-0.481
			c-0.392-0.143-0.815-0.256-1.271-0.343c-0.455-0.084-0.909-0.128-1.365-0.128c-0.346,0-0.702,0.029-1.069,0.083
			c-0.371,0.054-0.703,0.138-1.002,0.246c-0.298,0.111-0.545,0.255-0.741,0.436c-0.196,0.18-0.294,0.404-0.294,0.671
			c0,0.376,0.138,0.659,0.413,0.848c0.273,0.188,0.633,0.328,1.081,0.423c0.447,0.093,0.958,0.157,1.529,0.188
			c0.573,0.032,1.157,0.071,1.754,0.119c0.595,0.046,1.18,0.129,1.752,0.246c0.573,0.118,1.083,0.305,1.531,0.564
			c0.447,0.259,0.806,0.609,1.082,1.048c0.274,0.438,0.412,1.011,0.412,1.716c0,0.815-0.216,1.483-0.648,2.001
			c-0.43,0.518-0.969,0.927-1.611,1.224c-0.645,0.298-1.337,0.498-2.083,0.601c-0.745,0.1-1.439,0.152-2.083,0.152
			c-0.894,0-1.643-0.052-2.247-0.152c-0.604-0.103-1.106-0.228-1.506-0.377c-0.4-0.148-0.718-0.281-0.953-0.4
			c-0.235-0.118-0.439-0.176-0.612-0.176c-0.109,0-0.211,0.063-0.305,0.188l-0.33-0.188L178.001,21.796z"/>
		<path fill="#6A737B" d="M195.818,25.305c0.069,0,0.139-0.023,0.208-0.072c0.067-0.049,0.102-0.128,0.102-0.239V18.07h-2.701
			c-0.11,0-0.215,0.029-0.312,0.084c-0.097,0.055-0.146,0.144-0.146,0.27h-0.374v-2.391h0.374c0,0.194,0.049,0.325,0.146,0.395
			c0.097,0.07,0.202,0.104,0.312,0.104h7.4c0.11,0,0.214-0.034,0.312-0.104c0.097-0.07,0.145-0.2,0.145-0.395h0.375v2.391h-0.375
			c0-0.126-0.048-0.215-0.145-0.27c-0.098-0.055-0.202-0.084-0.312-0.084h-2.703v6.923c0,0.208,0.125,0.312,0.374,0.312v0.375
			h-2.682V25.305z"/>
		<path fill="#6A737B" d="M213.093,18.467c0-0.264-0.215-0.396-0.645-0.396h-5.071v2.08h3.2c0.236,0,0.409-0.018,0.519-0.053
			c0.112-0.034,0.167-0.128,0.167-0.28h0.374v2.203h-0.416c0.042-0.151-0.014-0.245-0.167-0.279
			c-0.152-0.036-0.367-0.053-0.644-0.053h-3.035v2.453h5.322c0.166,0,0.302-0.036,0.415-0.114c0.111-0.077,0.167-0.176,0.167-0.302
			h0.374v2.183h-0.374c0-0.123-0.056-0.194-0.167-0.206c-0.112-0.015-0.249-0.021-0.415-0.021h-7.63v-0.375
			c0.07,0,0.138-0.023,0.209-0.072c0.068-0.049,0.104-0.128,0.104-0.239v-7.774c0-0.11-0.035-0.19-0.104-0.24
			c-0.071-0.046-0.14-0.071-0.209-0.071v-0.375h7.379c0.43,0,0.645-0.125,0.645-0.375h0.375v2.309H213.093z"/>
		<path fill="#6A737B" d="M223.32,16.533c1.233,0,2.197,0.206,2.89,0.614c0.692,0.408,1.039,1.105,1.039,2.09
			c0,0.374-0.07,0.705-0.208,0.997c-0.139,0.291-0.323,0.544-0.55,0.76c-0.229,0.214-0.482,0.386-0.76,0.518
			c-0.276,0.131-0.56,0.233-0.851,0.303l2.037,2.972c0.11,0.154,0.232,0.267,0.365,0.343c0.131,0.076,0.272,0.135,0.425,0.176v0.375
			h-3.18v-0.375c0.179,0,0.27-0.062,0.27-0.186c0-0.139-0.104-0.354-0.312-0.646l-1.642-2.454h-2.89v2.973
			c0,0.111,0.045,0.19,0.134,0.239c0.09,0.049,0.178,0.072,0.261,0.072v0.375h-2.766v-0.375c0.251,0,0.375-0.104,0.375-0.312v-7.774
			c0-0.208-0.125-0.312-0.375-0.312v-0.375H223.32z M223.278,20.482c1.359,0,2.038-0.428,2.038-1.288
			c0-0.348-0.162-0.621-0.488-0.821c-0.326-0.201-0.843-0.303-1.55-0.303h-3.284v2.412H223.278z"/>
		<path fill="#6A737B" d="M234.296,16.533v0.375c-0.32,0-0.479,0.104-0.479,0.312v6.922h5.613c0.167,0,0.305-0.036,0.416-0.114
			c0.111-0.077,0.166-0.184,0.166-0.323h0.375v2.184h-0.375c0-0.111-0.055-0.174-0.166-0.187c-0.111-0.015-0.249-0.021-0.416-0.021
			h-8.148v-0.375c0.36,0,0.541-0.104,0.541-0.312v-7.774c0-0.208-0.181-0.312-0.541-0.312v-0.375H234.296z"/>
		<path fill="#6A737B" d="M244.17,25.305c0.221,0,0.374-0.023,0.457-0.072c0.082-0.049,0.125-0.128,0.125-0.239v-7.774
			c0-0.11-0.043-0.19-0.125-0.24c-0.083-0.046-0.235-0.071-0.457-0.071v-0.375h3.159v0.375c-0.388,0-0.581,0.104-0.581,0.312v7.774
			c0,0.208,0.193,0.312,0.581,0.312v0.375h-3.159V25.305z"/>
		<path fill="#6A737B" d="M251.944,25.305c0.249,0,0.375-0.104,0.375-0.312v-7.774c0-0.208-0.126-0.312-0.375-0.312v-0.375H255
			v0.375c-0.096,0.014-0.146,0.048-0.146,0.104c0,0.07,0.153,0.256,0.458,0.562l4.99,5.28v-5.635c0-0.208-0.14-0.312-0.416-0.312
			v-0.375h2.536v0.375c-0.25,0-0.374,0.104-0.374,0.312v7.774c0,0.208,0.124,0.312,0.374,0.312v0.375h-2.702v-0.375
			c0.097,0,0.145-0.034,0.145-0.104c0-0.056-0.065-0.153-0.195-0.291c-0.134-0.139-0.282-0.298-0.448-0.479l-5.156-5.487v6.049
			c0,0.208,0.145,0.312,0.437,0.312v0.375h-2.557V25.305z"/>
		<path fill="#6A737B" d="M274.955,19.547l-0.249-0.145c0.028-0.14,0.042-0.214,0.042-0.229c0-0.124-0.091-0.26-0.271-0.406
			c-0.18-0.145-0.417-0.281-0.708-0.405c-0.291-0.125-0.62-0.224-0.988-0.302c-0.366-0.077-0.737-0.114-1.111-0.114
			c-0.513,0-0.999,0.059-1.455,0.178c-0.458,0.117-0.86,0.305-1.207,0.562c-0.345,0.255-0.623,0.583-0.83,0.986
			c-0.208,0.402-0.312,0.895-0.312,1.477s0.11,1.07,0.333,1.465c0.221,0.395,0.508,0.713,0.862,0.956
			c0.353,0.243,0.744,0.419,1.174,0.53c0.43,0.11,0.846,0.166,1.248,0.166c0.596,0,1.16-0.042,1.694-0.125
			c0.533-0.083,1.021-0.241,1.465-0.478v-1.31h-2.141c-0.153,0-0.285,0.03-0.395,0.094c-0.112,0.062-0.18,0.177-0.209,0.343h-0.373
			v-2.141h0.373c0.029,0.138,0.097,0.229,0.209,0.27c0.11,0.042,0.242,0.062,0.395,0.062h4.074v0.374
			c-0.125,0.057-0.208,0.119-0.249,0.188c-0.042,0.069-0.062,0.174-0.062,0.311v1.975c0,0.125,0.017,0.213,0.051,0.262
			c0.035,0.048,0.121,0.1,0.259,0.155v0.25c-0.125,0.083-0.322,0.197-0.592,0.343c-0.271,0.146-0.61,0.288-1.019,0.426
			c-0.408,0.139-0.884,0.253-1.423,0.343c-0.542,0.09-1.144,0.136-1.809,0.136c-0.901,0-1.716-0.102-2.443-0.301
			c-0.729-0.201-1.345-0.502-1.85-0.905c-0.506-0.401-0.894-0.891-1.165-1.465c-0.27-0.577-0.406-1.231-0.406-1.966
			c0-0.733,0.136-1.389,0.406-1.964c0.271-0.575,0.658-1.066,1.165-1.477c0.505-0.408,1.121-0.72,1.85-0.935
			c0.727-0.214,1.542-0.322,2.443-0.322c0.54,0,1.018,0.05,1.434,0.145c0.416,0.097,0.776,0.202,1.081,0.312
			c0.319,0.111,0.575,0.215,0.77,0.312c0.194,0.097,0.34,0.146,0.437,0.146c0.111,0,0.194-0.012,0.249-0.032
			c0.055-0.021,0.125-0.065,0.209-0.135l0.249,0.125L274.955,19.547z"/>
		<path fill="#6A737B" d="M302.013,25.75c-0.581,0-1.086-0.043-1.517-0.129c-0.433-0.087-0.81-0.208-1.13-0.367
			c-0.322-0.156-0.597-0.333-0.823-0.528c-0.228-0.197-0.436-0.396-0.624-0.6c-0.377,0.314-0.727,0.576-1.047,0.789
			c-0.322,0.211-0.651,0.384-0.989,0.516c-0.337,0.135-0.697,0.221-1.082,0.26c-0.386,0.039-0.829,0.059-1.33,0.059
			c-0.565,0-1.142-0.063-1.73-0.188c-0.588-0.126-1.122-0.336-1.599-0.635c-0.48-0.297-0.875-0.682-1.19-1.153
			c-0.313-0.471-0.471-1.036-0.471-1.694c0-0.518,0.083-0.969,0.248-1.353c0.165-0.384,0.389-0.719,0.67-1
			c0.283-0.283,0.619-0.519,1.012-0.707c0.391-0.188,0.816-0.346,1.271-0.471v-0.047c-0.487-0.156-0.906-0.436-1.259-0.834
			c-0.354-0.4-0.529-0.868-0.529-1.401c0-0.549,0.129-1.015,0.388-1.4c0.258-0.383,0.587-0.705,0.988-0.965
			c0.4-0.258,0.855-0.446,1.365-0.564c0.51-0.117,1.007-0.176,1.494-0.176c0.502,0,1.004,0.06,1.506,0.176
			c0.502,0.118,0.953,0.306,1.353,0.564c0.4,0.26,0.73,0.582,0.989,0.965c0.258,0.386,0.387,0.852,0.387,1.4
			s-0.153,1.023-0.458,1.424c-0.307,0.399-0.64,0.664-1.001,0.788c0.205,0.142,0.369,0.31,0.496,0.506
			c0.125,0.197,0.234,0.394,0.329,0.588c0.095,0.197,0.18,0.384,0.26,0.565c0.077,0.181,0.171,0.327,0.281,0.435
			c0.235-0.423,0.509-0.815,0.823-1.176c0.313-0.361,0.627-0.679,0.941-0.953c0.314-0.274,0.6-0.496,0.861-0.659
			c0.258-0.165,0.449-0.263,0.576-0.294c0.077-0.032,0.148-0.066,0.21-0.105c0.063-0.039,0.095-0.09,0.095-0.154h0.235v3.624h-0.235
			c-0.032-0.092-0.083-0.203-0.153-0.329c-0.071-0.124-0.192-0.188-0.364-0.188c-0.189,0-0.37,0.079-0.542,0.235
			c-0.173,0.158-0.329,0.349-0.471,0.576c-0.142,0.229-0.267,0.46-0.375,0.695c-0.11,0.235-0.189,0.431-0.236,0.587
			c0.22,0.283,0.482,0.538,0.789,0.766c0.305,0.227,0.591,0.348,0.858,0.364c0.22,0,0.358-0.071,0.412-0.212
			c0.055-0.141,0.083-0.297,0.083-0.471h0.235V25.75z M291.072,21.751c0,0.391,0.084,0.729,0.258,1.011
			c0.172,0.282,0.399,0.509,0.682,0.683c0.283,0.171,0.592,0.297,0.93,0.375c0.338,0.079,0.669,0.117,1,0.117
			c0.314,0,0.616-0.05,0.906-0.153c0.291-0.102,0.553-0.231,0.788-0.388c0.235-0.156,0.428-0.333,0.576-0.53
			c0.149-0.195,0.24-0.396,0.271-0.598c-0.235-0.33-0.408-0.656-0.518-0.979c-0.108-0.32-0.235-0.611-0.377-0.87
			c-0.141-0.259-0.329-0.468-0.563-0.624c-0.236-0.155-0.597-0.234-1.083-0.234c-0.331,0-0.662,0.039-1,0.118
			c-0.337,0.079-0.647,0.204-0.93,0.377c-0.282,0.171-0.51,0.396-0.682,0.67C291.156,21,291.072,21.342,291.072,21.751z
			 M294.129,14.902c-0.548,0-1.016,0.129-1.4,0.389c-0.385,0.259-0.578,0.663-0.578,1.211c0,0.549,0.192,0.953,0.578,1.212
			c0.384,0.259,0.852,0.389,1.4,0.389c0.549,0,1.016-0.13,1.402-0.389c0.382-0.259,0.575-0.663,0.575-1.212
			c0-0.549-0.192-0.952-0.575-1.211C295.145,15.031,294.678,14.902,294.129,14.902z"/>
		<path fill="#6A737B" d="M328.861,23.985c-0.047,0-0.09-0.003-0.13-0.012c-0.04-0.007-0.082-0.012-0.13-0.012
			c-0.095,0-0.317,0.095-0.669,0.283c-0.354,0.187-0.801,0.399-1.343,0.635c-0.539,0.234-1.156,0.439-1.846,0.611
			c-0.69,0.172-1.413,0.259-2.165,0.259c-0.988,0-1.938-0.125-2.847-0.375c-0.91-0.252-1.714-0.64-2.412-1.166
			c-0.698-0.526-1.251-1.179-1.659-1.965c-0.409-0.785-0.612-1.701-0.612-2.752c0-1.037,0.203-1.951,0.612-2.742
			c0.407-0.792,0.96-1.455,1.659-1.987c0.698-0.534,1.502-0.935,2.412-1.201c0.909-0.267,1.859-0.399,2.847-0.399
			c0.8,0,1.525,0.063,2.177,0.189c0.65,0.125,1.219,0.257,1.706,0.399c0.485,0.14,0.871,0.275,1.153,0.4
			c0.283,0.125,0.455,0.187,0.518,0.187c0.078,0,0.145-0.039,0.2-0.118c0.055-0.078,0.099-0.14,0.13-0.187l0.353,0.281l-1.836,2.847
			l-0.236-0.165c0-0.047-0.003-0.095-0.011-0.141c-0.008-0.046-0.021-0.102-0.037-0.165c-0.03-0.173-0.188-0.349-0.469-0.529
			c-0.283-0.181-0.632-0.341-1.048-0.482c-0.416-0.142-0.855-0.259-1.317-0.353c-0.462-0.094-0.891-0.142-1.283-0.142
			c-0.66,0-1.291,0.093-1.895,0.281c-0.604,0.19-1.128,0.464-1.576,0.825c-0.446,0.36-0.804,0.805-1.071,1.329
			c-0.266,0.526-0.4,1.125-0.4,1.801c0,0.675,0.134,1.274,0.4,1.799c0.267,0.527,0.625,0.969,1.071,1.33
			c0.447,0.361,0.972,0.636,1.576,0.823c0.604,0.189,1.235,0.282,1.895,0.282c0.5,0,1.027-0.058,1.576-0.176
			c0.549-0.117,1.051-0.267,1.506-0.446c0.454-0.18,0.835-0.384,1.142-0.612c0.306-0.228,0.459-0.443,0.459-0.648
			c0-0.109-0.031-0.202-0.094-0.282l0.329-0.188l1.553,2.495L328.861,23.985z"/>
		<path fill="#6A737B" d="M338.283,16.408c0.761,0,1.48,0.097,2.151,0.292c0.672,0.193,1.258,0.485,1.757,0.873
			c0.5,0.387,0.894,0.875,1.185,1.465c0.292,0.588,0.437,1.278,0.437,2.067c0,0.791-0.145,1.48-0.437,2.068
			c-0.291,0.59-0.685,1.078-1.185,1.467c-0.499,0.388-1.084,0.669-1.757,0.841c-0.671,0.173-1.39,0.26-2.151,0.26
			c-0.762,0-1.48-0.087-2.151-0.26c-0.671-0.172-1.257-0.454-1.757-0.841c-0.499-0.389-0.894-0.877-1.186-1.467
			c-0.29-0.588-0.437-1.277-0.437-2.068c0-0.789,0.146-1.479,0.437-2.067c0.292-0.59,0.687-1.078,1.186-1.465
			c0.5-0.388,1.085-0.68,1.757-0.873C336.803,16.505,337.521,16.408,338.283,16.408z M338.283,17.946
			c-0.444,0-0.876,0.073-1.3,0.218c-0.422,0.145-0.8,0.354-1.133,0.624c-0.331,0.27-0.6,0.599-0.799,0.988
			c-0.202,0.388-0.301,0.831-0.301,1.33c0,0.5,0.1,0.943,0.301,1.33c0.199,0.39,0.468,0.717,0.799,0.988
			c0.333,0.271,0.711,0.479,1.133,0.624c0.423,0.145,0.855,0.218,1.3,0.218c0.444,0,0.876-0.073,1.299-0.218
			c0.423-0.146,0.801-0.354,1.132-0.624c0.333-0.271,0.601-0.599,0.801-0.988c0.2-0.387,0.301-0.83,0.301-1.33
			c0-0.499-0.101-0.941-0.301-1.33c-0.201-0.389-0.469-0.718-0.801-0.988c-0.331-0.27-0.709-0.479-1.132-0.624
			C339.159,18.019,338.727,17.946,338.283,17.946z"/>
		<path fill="#6A737B" d="M347.616,25.305c0.07-0.014,0.127-0.041,0.178-0.083c0.047-0.041,0.073-0.138,0.073-0.291v-7.608
			c0-0.194-0.018-0.312-0.052-0.354c-0.036-0.042-0.102-0.062-0.199-0.062v-0.375h2.89v0.375c-0.139,0-0.207,0.062-0.207,0.186
			c0,0.057,0.024,0.129,0.073,0.218c0.047,0.092,0.12,0.22,0.218,0.385l2.535,4.678l2.557-4.657c0.097-0.165,0.174-0.302,0.23-0.406
			c0.054-0.103,0.082-0.175,0.082-0.218c0-0.124-0.054-0.186-0.166-0.186v-0.375h2.932v0.375c-0.071,0-0.135,0.018-0.198,0.051
			c-0.062,0.035-0.093,0.109-0.093,0.219v7.816c0,0.111,0.031,0.19,0.093,0.239c0.062,0.049,0.127,0.072,0.198,0.072v0.375h-2.412
			v-0.375c0.291,0,0.417-0.104,0.374-0.312v-5.842h-0.041l-3.534,6.528h-0.167l-3.347-6.528h0.021h-0.043v5.842
			c0,0.208,0.121,0.312,0.355,0.312v0.375h-2.35V25.305z"/>
		<path fill="#6A737B" d="M363.644,17.219c0-0.208-0.173-0.312-0.521-0.312v-0.375h6.05c1.123,0,1.964,0.202,2.526,0.604
			c0.561,0.401,0.842,1.1,0.842,2.1c0,0.997-0.281,1.687-0.842,2.067c-0.562,0.381-1.403,0.571-2.526,0.571h-3.534v3.118
			c0,0.208,0.146,0.312,0.436,0.312v0.375h-2.952v-0.375c0.348,0,0.521-0.104,0.521-0.312V17.219z M369.131,20.337
			c0.402,0,0.738-0.072,1.008-0.218c0.27-0.146,0.405-0.44,0.405-0.883c0-0.431-0.135-0.732-0.405-0.906
			c-0.27-0.173-0.606-0.26-1.008-0.26h-3.492v2.267H369.131z"/>
		<path fill="#6A737B" d="M374.64,25.305c0.167-0.027,0.302-0.107,0.406-0.238c0.104-0.132,0.183-0.253,0.238-0.364l3.099-6.756
			c0.083-0.193,0.148-0.35,0.198-0.467c0.048-0.119,0.072-0.232,0.072-0.343c0-0.084-0.017-0.136-0.053-0.158
			c-0.035-0.021-0.073-0.044-0.114-0.071v-0.375h3.138v0.375c-0.04,0.027-0.085,0.048-0.134,0.062
			c-0.048,0.014-0.072,0.069-0.072,0.167c0,0.082,0.032,0.183,0.093,0.3c0.063,0.118,0.129,0.254,0.197,0.406l3.369,7.067
			c0.069,0.125,0.146,0.216,0.229,0.271c0.084,0.056,0.172,0.097,0.27,0.124v0.375h-2.952v-0.312c0.07,0,0.142-0.021,0.219-0.063
			c0.076-0.041,0.113-0.118,0.113-0.228c0-0.084-0.014-0.16-0.042-0.229c-0.029-0.07-0.062-0.159-0.103-0.271l-0.562-1.185H377.8
			l-0.583,1.124c-0.055,0.11-0.101,0.211-0.135,0.3c-0.036,0.09-0.052,0.171-0.052,0.239c0,0.111,0.035,0.181,0.105,0.208
			c0.068,0.027,0.165,0.041,0.29,0.041v0.375h-2.785V25.305z M381.583,21.854l-1.684-3.491l-1.475,3.491H381.583z"/>
		<path fill="#6A737B" d="M388.609,25.305c0.25,0,0.375-0.104,0.375-0.312v-7.774c0-0.208-0.126-0.312-0.375-0.312v-0.375h3.057
			v0.375c-0.098,0.014-0.146,0.048-0.146,0.104c0,0.07,0.153,0.256,0.456,0.562l4.991,5.28v-5.635c0-0.208-0.14-0.312-0.417-0.312
			v-0.375h2.537v0.375c-0.251,0-0.375,0.104-0.375,0.312v7.774c0,0.208,0.124,0.312,0.375,0.312v0.375h-2.704v-0.375
			c0.098,0,0.146-0.034,0.146-0.104c0-0.056-0.064-0.153-0.195-0.291c-0.132-0.139-0.283-0.298-0.448-0.479l-5.155-5.487v6.049
			c0,0.208,0.145,0.312,0.435,0.312v0.375h-2.557V25.305z"/>
		<path fill="#6A737B" d="M403.078,17.26c-0.098-0.123-0.216-0.213-0.354-0.27c-0.139-0.056-0.27-0.083-0.396-0.083v-0.375h3.431
			v0.375c-0.07,0-0.145,0.025-0.229,0.071c-0.082,0.05-0.125,0.115-0.125,0.199c0,0.083,0.029,0.16,0.084,0.228
			c0.055,0.07,0.118,0.154,0.186,0.25l2.1,2.743l1.851-2.577c0.125-0.18,0.217-0.316,0.281-0.405c0.063-0.09,0.092-0.176,0.092-0.26
			c0-0.109-0.033-0.179-0.102-0.208c-0.069-0.027-0.141-0.041-0.21-0.041v-0.375h3.182v0.375c-0.167,0-0.351,0.094-0.55,0.28
			c-0.202,0.187-0.378,0.379-0.531,0.572l-3.18,4.115v3.118c0,0.208,0.13,0.312,0.394,0.312v0.375h-2.764v-0.375
			c0.248,0,0.374-0.104,0.374-0.312v-3.2L403.078,17.26z"/>
	</g>
	<path fill="#6A737B" d="M19.393,42.74c-2.703,0-5.455-0.25-8.221-0.759v-3.875c1.663,0.181,3.314,0.271,4.947,0.271
		c0.645,0,1.285-0.015,1.924-0.042c1.965,1.578,4.036,2.961,6.178,4.14C22.634,42.65,21.023,42.74,19.393,42.74z M16.794,37.294
		c-2.008-1.735-3.893-3.683-5.623-5.831v5.557c1.664,0.185,3.315,0.279,4.947,0.279C16.344,37.3,16.568,37.297,16.794,37.294z
		 M42.791,47.403c-5.718-0.001-11.508-1.398-16.9-4.059c-2.123,0.313-4.294,0.473-6.498,0.473c-2.705,0-5.457-0.243-8.221-0.743
		v7.913H52v-4.855c-2.995,0.854-6.09,1.271-9.206,1.271C42.793,47.403,42.792,47.403,42.791,47.403z M18.401,37.239
		c8.195-0.426,15.789-3.138,21.81-7.559c5.453-4.004,9.614-9.402,11.789-15.782v-3.74H11.171v19.558
		C13.334,32.57,15.77,35.088,18.401,37.239z M27.751,43.029c4.851,2.167,9.982,3.299,15.039,3.297c3.125,0,6.221-0.431,9.209-1.314
		V27.933C46.517,35.764,37.762,41.11,27.751,43.029z M40.849,30.548c-5.903,4.331-13.248,7.058-21.182,7.688
		c2.04,1.545,4.186,2.878,6.399,3.994C37.011,40.53,46.528,34.688,52,25.989v-9.13C49.583,22.324,45.706,26.983,40.849,30.548z"/>
	<line fill="none" stroke="#6A737B" stroke-width="0.5" stroke-miterlimit="10" x1="63.394" y1="32.625" x2="412.869" y2="32.625"/>
	<g>
		<path fill="#6A737B" d="M64.426,48.552h-1.409v-8.5h1.409V48.552z"/>
		<path fill="#6A737B" d="M76.917,48.552h-1.752l-6.489-6.97v6.97h-1.409v-8.5h1.749l6.492,6.974v-6.974h1.409V48.552z"/>
		<path fill="#6A737B" d="M89.172,40.052l-4.579,8.5h-1.62l-4.579-8.5h1.573l3.815,7.083l3.815-7.083H89.172z"/>
		<path fill="#6A737B" d="M99.55,48.552h-8.898v-8.5h8.57v1.268h-7.161v2.184h4.978v1.268h-4.978v2.512h7.49V48.552z"/>
		<path fill="#6A737B" d="M109.129,42.048c-1.26-0.642-2.543-0.962-3.851-0.962c-0.869,0-1.534,0.102-1.996,0.305
			s-0.693,0.485-0.693,0.845c0,0.376,0.247,0.65,0.74,0.822c0.352,0.125,0.927,0.211,1.726,0.258
			c1.174,0.078,1.949,0.141,2.325,0.188c1.064,0.141,1.851,0.403,2.359,0.787c0.509,0.383,0.763,0.927,0.763,1.631
			c0,0.9-0.399,1.597-1.197,2.09s-1.945,0.74-3.44,0.74c-2.168,0-3.854-0.478-5.06-1.432l0.775-1.021
			c1.33,0.814,2.763,1.221,4.296,1.221c0.994,0,1.765-0.137,2.313-0.411c0.524-0.266,0.787-0.63,0.787-1.092
			c0-0.54-0.345-0.9-1.033-1.08c-0.36-0.094-1.331-0.192-2.912-0.293c-1.401-0.094-2.383-0.282-2.946-0.563
			c-0.658-0.329-0.986-0.88-0.986-1.655c0-0.798,0.374-1.428,1.121-1.89s1.802-0.693,3.164-0.693c1.831,0,3.365,0.419,4.602,1.256
			L109.129,42.048z"/>
		<path fill="#6A737B" d="M121.045,41.32h-4.062v7.231h-1.409V41.32h-4.062v-1.268h9.532V41.32z"/>
		<path fill="#6A737B" d="M134.381,48.552h-1.409v-6.95h-0.035l-4.414,5.541l-4.379-5.542l-0.036,0v6.95H122.7v-8.5h1.761
			l4.073,5.136l4.091-5.136h1.755V48.552z"/>
		<path fill="#6A737B" d="M146.121,48.552h-8.898v-8.5h8.57v1.268h-7.161v2.184h4.978v1.268h-4.978v2.512h7.49V48.552z"/>
		<path fill="#6A737B" d="M157.895,48.552h-1.752l-6.489-6.97v6.97h-1.409v-8.5h1.749l6.492,6.974v-6.974h1.409V48.552z"/>
		<path fill="#6A737B" d="M169.083,41.32h-4.062v7.231h-1.409V41.32h-4.062v-1.268h9.532V41.32z"/>
		<path fill="#6A737B" d="M182.794,44.173c0.97,0.329,1.456,1.045,1.456,2.148c0,1.487-1.072,2.23-3.216,2.23h-6.774v-8.5h6.868
			c0.861,0,1.538,0.211,2.031,0.634c0.493,0.422,0.74,0.986,0.74,1.69C183.898,43.151,183.53,43.75,182.794,44.173z M181.151,43.609
			c0.391,0,0.718-0.112,0.98-0.336c0.262-0.225,0.393-0.498,0.393-0.82c0-0.346-0.117-0.622-0.352-0.826s-0.556-0.307-0.963-0.307
			h-5.541v2.289H181.151z M181.045,47.284c1.174,0,1.761-0.387,1.761-1.162c0-0.83-0.513-1.245-1.538-1.245h-5.6v2.406H181.045z"/>
		<path fill="#6A737B" d="M196.189,48.552h-1.541l-0.979-1.902h-5.725l-0.979,1.902h-1.541l4.496-8.5h1.772L196.189,48.552z
			 M192.984,45.382l-2.165-4.118l-2.191,4.118H192.984z"/>
		<path fill="#6A737B" d="M207.435,48.552h-1.752l-6.489-6.97v6.97h-1.409v-8.5h1.749l6.492,6.974v-6.974h1.409V48.552z"/>
		<path fill="#6A737B" d="M220.137,48.552h-1.811l-4.069-4.466l-2.573,1.888v2.578h-1.409v-8.5h1.409v4.402l5.952-4.402h2.034
			l-4.347,3.216L220.137,48.552z"/>
		<path fill="#6A737B" d="M222.966,48.552h-1.409v-8.5h1.409V48.552z"/>
		<path fill="#6A737B" d="M235.458,48.552h-1.752l-6.489-6.97v6.97h-1.409v-8.5h1.749l6.492,6.974v-6.974h1.409V48.552z"/>
		<path fill="#6A737B" d="M248.723,44.172c0,1.382-0.495,2.499-1.485,3.35c-0.99,0.851-2.303,1.276-3.938,1.276
			c-1.495,0-2.743-0.379-3.745-1.139c-1.135-0.861-1.702-1.984-1.702-3.369c0-1.362,0.575-2.481,1.726-3.358
			c1.009-0.767,2.289-1.15,3.839-1.15c1.87,0,3.404,0.685,4.602,2.055l-1.314,0.657c-0.885-0.947-2.02-1.42-3.405-1.42
			c-1.08,0-1.984,0.266-2.712,0.798c-0.845,0.618-1.268,1.424-1.268,2.418c0,0.955,0.364,1.729,1.092,2.324
			c0.728,0.595,1.69,0.892,2.888,0.892c1.878,0,3.099-0.731,3.663-2.195h-3.956v-1.268h5.717V44.172z"/>
		<path fill="#6A737B" d="M259.922,40.052l-5.435,8.628h-1.596l5.436-8.628H259.922z"/>
		<path fill="#6A737B" d="M274.045,48.552h-1.541l-0.979-1.902H265.8l-0.979,1.902h-1.541l4.496-8.5h1.772L274.045,48.552z
			 M270.84,45.382l-2.165-4.118l-2.191,4.118H270.84z"/>
		<path fill="#6A737B" d="M283.096,42.048c-1.26-0.642-2.543-0.962-3.851-0.962c-0.869,0-1.534,0.102-1.996,0.305
			s-0.693,0.485-0.693,0.845c0,0.376,0.247,0.65,0.74,0.822c0.352,0.125,0.927,0.211,1.726,0.258
			c1.174,0.078,1.949,0.141,2.325,0.188c1.064,0.141,1.851,0.403,2.359,0.787c0.509,0.383,0.763,0.927,0.763,1.631
			c0,0.9-0.399,1.597-1.197,2.09s-1.945,0.74-3.44,0.74c-2.168,0-3.854-0.478-5.06-1.432l0.775-1.021
			c1.33,0.814,2.763,1.221,4.296,1.221c0.994,0,1.765-0.137,2.313-0.411c0.524-0.266,0.787-0.63,0.787-1.092
			c0-0.54-0.345-0.9-1.033-1.08c-0.36-0.094-1.331-0.192-2.912-0.293c-1.401-0.094-2.383-0.282-2.946-0.563
			c-0.658-0.329-0.986-0.88-0.986-1.655c0-0.798,0.374-1.428,1.121-1.89s1.802-0.693,3.164-0.693c1.831,0,3.365,0.419,4.602,1.256
			L283.096,42.048z"/>
		<path fill="#6A737B" d="M294.119,42.048c-1.26-0.642-2.543-0.962-3.851-0.962c-0.869,0-1.534,0.102-1.996,0.305
			s-0.693,0.485-0.693,0.845c0,0.376,0.247,0.65,0.74,0.822c0.352,0.125,0.927,0.211,1.726,0.258
			c1.174,0.078,1.949,0.141,2.325,0.188c1.064,0.141,1.851,0.403,2.359,0.787c0.509,0.383,0.763,0.927,0.763,1.631
			c0,0.9-0.399,1.597-1.197,2.09s-1.945,0.74-3.44,0.74c-2.168,0-3.854-0.478-5.06-1.432l0.775-1.021
			c1.33,0.814,2.763,1.221,4.296,1.221c0.994,0,1.765-0.137,2.313-0.411c0.524-0.266,0.787-0.63,0.787-1.092
			c0-0.54-0.345-0.9-1.033-1.08c-0.36-0.094-1.331-0.192-2.912-0.293c-1.401-0.094-2.383-0.282-2.946-0.563
			c-0.658-0.329-0.986-0.88-0.986-1.655c0-0.798,0.374-1.428,1.121-1.89s1.802-0.693,3.164-0.693c1.831,0,3.365,0.419,4.602,1.256
			L294.119,42.048z"/>
		<path fill="#6A737B" d="M306.586,48.552h-8.898v-8.5h8.57v1.268h-7.161v2.184h4.978v1.268h-4.978v2.512h7.49V48.552z"/>
		<path fill="#6A737B" d="M317.058,41.32h-4.062v7.231h-1.409V41.32h-4.062v-1.268h9.532V41.32z"/>
		<path fill="#6A737B" d="M331.133,48.552h-8.898v-8.5h8.57v1.268h-7.161v2.184h4.978v1.268h-4.978v2.512h7.49V48.552z"/>
		<path fill="#6A737B" d="M342.497,48.552h-1.832l-3.433-3.437l-3.413,3.437h-1.829l4.333-4.305l-4.183-4.194h1.833l3.272,3.308
			l3.267-3.308h1.829l-4.182,4.187L342.497,48.552z"/>
		<path fill="#6A737B" d="M350.809,40.052c0.869,0,1.557,0.241,2.066,0.722s0.763,1.125,0.763,1.931
			c0,0.845-0.264,1.491-0.792,1.937c-0.528,0.446-1.297,0.669-2.307,0.669h-5.06v3.24h-1.409v-8.5H350.809z M350.562,44.044
			c1.087,0,1.632-0.438,1.632-1.314c0-0.939-0.576-1.409-1.726-1.409h-4.989v2.724H350.562z"/>
		<path fill="#6A737B" d="M364.156,48.552h-8.898v-8.5h8.57v1.268h-7.161v2.184h4.978v1.268h-4.978v2.512h7.49V48.552z"/>
		<path fill="#6A737B" d="M375.919,48.552h-1.639l-2.3-3.24h-4.291v3.24h-1.409v-8.5h6.703c0.893,0,1.593,0.241,2.102,0.722
			s0.763,1.133,0.763,1.955c0,0.72-0.208,1.299-0.622,1.737c-0.384,0.407-0.912,0.666-1.585,0.775L375.919,48.552z M372.773,44.044
			c1.087,0,1.632-0.438,1.632-1.314c0-0.939-0.587-1.409-1.761-1.409h-4.954v2.724H372.773z"/>
		<path fill="#6A737B" d="M386.46,41.32h-4.062v7.231h-1.409V41.32h-4.062v-1.268h9.532V41.32z"/>
		<path fill="#6A737B" d="M389.524,48.552h-1.409v-8.5h1.409V48.552z"/>
		<path fill="#6A737B" d="M399.82,42.048c-1.26-0.642-2.543-0.962-3.851-0.962c-0.869,0-1.534,0.102-1.996,0.305
			s-0.693,0.485-0.693,0.845c0,0.376,0.247,0.65,0.74,0.822c0.352,0.125,0.927,0.211,1.726,0.258
			c1.174,0.078,1.949,0.141,2.325,0.188c1.064,0.141,1.851,0.403,2.359,0.787c0.509,0.383,0.763,0.927,0.763,1.631
			c0,0.9-0.399,1.597-1.197,2.09s-1.945,0.74-3.44,0.74c-2.168,0-3.854-0.478-5.06-1.432l0.775-1.021
			c1.33,0.814,2.763,1.221,4.296,1.221c0.994,0,1.765-0.137,2.313-0.411c0.524-0.266,0.787-0.63,0.787-1.092
			c0-0.54-0.345-0.9-1.033-1.08c-0.36-0.094-1.331-0.192-2.912-0.293c-1.401-0.094-2.383-0.282-2.946-0.563
			c-0.658-0.329-0.986-0.88-0.986-1.655c0-0.798,0.374-1.428,1.121-1.89s1.802-0.693,3.164-0.693c1.831,0,3.365,0.419,4.602,1.256
			L399.82,42.048z"/>
		<path fill="#6A737B" d="M412.288,48.552h-8.898v-8.5h8.57v1.268h-7.161v2.184h4.978v1.268h-4.978v2.512h7.49V48.552z"/>
	</g>
</g>
</svg>
