<?xml version="1.0" encoding="utf-8"?>
<!-- Generator: Adobe Illustrator 16.0.0, SVG Export Plug-In . SVG Version: 6.00 Build 0)  -->
<!DOCTYPE svg PUBLIC "-//W3C//DTD SVG 1.1//EN" "http://www.w3.org/Graphics/SVG/1.1/DTD/svg11.dtd">
<svg version="1.1" id="Layer_1" xmlns="http://www.w3.org/2000/svg" xmlns:xlink="http://www.w3.org/1999/xlink" x="0px" y="0px"
	 width="117.311px" height="52.044px" viewBox="0 0 117.311 52.044" enable-background="new 0 0 117.311 52.044"
	 xml:space="preserve">
<g>
	<path fill="#FFFFFF" d="M34.679,4.763c-0.206-0.137-0.48-0.137-0.824-0.137C33.237,4.901,32.619,5.107,32,5.519
		c-1.58,1.305-2.198,3.366-2.541,5.358c-0.068,0.961,0.342,1.923,0.548,2.816c0.207,1.511,1.031,2.747,1.992,3.915l0.275,0.069
		c0.068-0.069,0-0.206,0-0.343c-0.895-1.786-2.062-3.641-1.718-5.907c0.275-0.481,0.894-0.893,0.756-1.512h-0.139
		c-0.273,0.481-0.479,1.031-0.961,1.306c0.48-0.687,0.48-1.581,0.688-2.404c0.137-0.274,0.344,0.069,0.479,0.137l0.139-0.206
		c0.068,0,0.206-0.068,0.274,0c0.069,0.619,0.069,1.236-0.068,1.786c0.206-0.138,0.273-0.413,0.412-0.55
		c0.206-0.55-0.068-1.099,0-1.58c0.344-0.343,0.412-0.756,0.617-1.1c0.895-0.343,0.345,0.962,0.825,1.168
		c0.137-0.274,0.206-0.618,0.412-0.892c-0.275-0.276-0.55-0.619-0.825-0.825c-0.549-0.413-0.687,0.481-1.099,0.549
		c-0.618,0.138-0.55,0.757-0.895,1.1c-0.273-0.138-0.206-0.481-0.137-0.756c0-0.48,0.481-0.48,0.756-0.755
		c0.481-0.206,0.619-0.687,0.825-1.099c0.136-0.069,0.412,0,0.48,0.206c0.756-0.138,0.55,0.756,1.1,0.962
		c0.618,0.069,0.756,0.619,1.305,0.825c0.413-0.482-0.412-0.687-0.48-1.168C34.679,6.068,35.229,5.244,34.679,4.763L34.679,4.763z
		 M34.405,7.648c-0.206,0.138-0.412,0.55-0.55,0.824c0.068,0.07,0.138,0.07,0.274,0.07C34.473,8.404,34.473,7.923,34.405,7.648
		L34.405,7.648z M35.435,8.061c-0.962-0.275-0.688,0.892-1.099,1.305c-0.138,0.137-0.275,0.274-0.413,0.137
		c-0.068-0.206,0-0.412-0.068-0.48c0,0.206-0.274,0.206-0.412,0.344c0.068,0.137,0.274,0.068,0.412,0.137
		c0.412,0.893-0.206,1.718-0.618,2.474l-0.069,0.618c0.275,1.099,0.962,1.993,1.306,3.021c-0.068-0.892-0.687-1.579-0.687-2.472
		c-0.206-0.961,0.755-1.167,1.03-1.923c0.067-0.275-0.138-0.893,0.344-0.962c0.137-0.206,0.068-0.618,0.068-0.755
		c-0.274,0.275-0.824,0.481-0.55,0.962c-0.206,0.618-0.274,1.58-1.03,1.648c-0.206-0.069-0.138-0.275-0.138-0.412
		c0.412-0.275,0.688-0.893,0.618-1.443c0.069-0.755,0.961-1.098,0.825-1.854C35.022,8.128,35.297,8.128,35.435,8.061L35.435,8.061z
		 M32.893,9.915c0-0.275,0.068-0.687-0.206-0.824c0.138,0.619-0.206,1.03-0.343,1.511C32.619,10.533,32.825,10.189,32.893,9.915
		L32.893,9.915z M33.374,10.464c0.069-0.069,0.138-0.275,0-0.275c-0.274,0.412-0.48,0.756-0.755,1.031
		c-0.275,0.343-0.138,0.893-0.344,1.305c0.138,0.069,0.068,0.206,0.206,0.343c0.206,0.207,0.344,0.55,0.48,0.825
		c0.138,0.824,0.756,1.441,0.825,2.335c0.068,0.344-0.069,0.688,0.206,1.031c0.068-0.343,0.206-0.687,0.068-1.031
		c-0.068-0.343-0.206-0.687-0.344-1.03c-0.068-0.618-0.274-1.305-0.687-1.786c-0.344-0.412-0.275-0.687-0.344-1.099
		C32.825,11.563,33.237,11.014,33.374,10.464L33.374,10.464z M31.657,13.143c-0.206-0.549,0.137-1.374-0.481-1.786
		c-0.205,0.344-0.137,0.825-0.137,1.236c0,1.443,0.756,2.541,1.237,3.778c0.206,0.274,0.206,0.755,0.479,1.03
		c0.07-0.138,0.275-0.824-0.067-1.167C32.275,15.204,31.657,14.311,31.657,13.143L31.657,13.143z M32.137,12.663
		c0-0.344,0.069-0.55-0.138-0.619c-0.206,0.55-0.137,1.237,0,1.854c0.207,0.618,0.755,1.924,1.237,2.885
		c0.137,0.412,0.137,0.893,0.068,1.305c0.068-0.206,0.274-0.412,0.274-0.549c-0.138-0.824-0.207-1.717-0.55-2.405
		C32.755,14.243,32.275,13.693,32.137,12.663L32.137,12.663z M36.19,12.663c-0.137-0.206-0.274-0.48-0.48-0.619
		c-0.413,0.756-0.755,1.58-0.413,2.404c0.413-0.069,0.206-0.619,0.413-0.825C35.778,13.143,36.258,13.075,36.19,12.663L36.19,12.663
		z M34.955,14.448c-0.618-0.688-0.207-1.58,0-2.266l-0.688,0.549c-0.206,0.688,0.069,1.512,0.55,1.992
		C34.955,14.723,34.955,14.517,34.955,14.448L34.955,14.448z M37.358,14.723c-0.206-0.55-0.068-1.375-0.756-1.511
		c-0.206,0.275-0.549,0.275-0.48,0.687c0.136,0.069,0.206,0.688,0.549,0.55c0.275,0.068,0.344,0.344,0.413,0.549
		C37.221,15.067,37.358,14.86,37.358,14.723L37.358,14.723z M36.396,17.059c-0.48,0-0.412-0.481-0.618-0.824
		c-0.138,0.411,0,0.824,0,1.167c0.138,0.069,0.275-0.138,0.479-0.138c0.276,0.138,0.07,0.551,0.139,0.757
		c0.069-0.069,0.138-0.206,0.138-0.276c0.688-0.274,0.343,0.619,0.688,0.894c0.274-0.069,0.137-0.48,0.411-0.618
		c0.069-0.069,0.275,0,0.275-0.206c-0.068-0.275-0.275-0.619-0.55-0.413C36.946,17.402,36.877,16.922,36.396,17.059L36.396,17.059z
		 M36.053,18.982c-0.138-0.207-0.275-0.619-0.619-0.755c-0.138,0.137-0.274,0.275-0.344,0.481c0.138,0.068,0.138,0.343,0.344,0.412
		C35.641,19.119,35.984,19.256,36.053,18.982L36.053,18.982z M37.633,16.509c0.069-0.069-0.206-0.961-0.068-1.031
		c0,0.069,0.068,0.137,0.068,0.137c0-0.068-0.068-0.137-0.068-0.137c-0.206-0.274-0.55,0.275-0.962,0
		c-0.068-0.137-0.345,0-0.48,0.069c-0.068,0.138,0,0.275,0.068,0.412l0.067,0.069l0.276-0.137c0.137-0.206,0.274,0,0.274,0.137
		c0,0.275-0.138,0.344,0.068,0.481c0,0,0.345-0.274,0.413-0.413C37.29,16.096,37.496,16.716,37.633,16.509L37.633,16.509z
		 M47.25,7.442l-0.893-1.237c-0.688-0.962-1.511-1.717-2.542-2.129c-0.342-0.137-0.824-0.412-1.306,0
		c-0.823,0.825-0.137,1.786-0.48,2.61c-0.275,0.618-0.893,1.1-1.58,1.031c-0.344-0.207-0.618-0.55-1.03-0.413
		c-0.275,0.344-0.825-0.068-0.962,0.413c-0.206,0.069-0.412,0.069-0.55-0.069c-0.275-0.275-0.412,0.138-0.55,0.206
		c-0.344,0.344-0.824-0.206-1.236,0.137c-0.688,0.894-0.344,2.267-0.069,3.366c0.205,0.825,1.031,1.374,1.718,1.923
		c0.138,0.206-0.206,0.343-0.138,0.687c0.138,0.549,0.344,1.305,1.1,1.374c-0.138-0.825-0.48-1.923,0.274-2.473
		c0.138-0.068,0.207-0.068,0.345,0.069c0,0.411-0.413,0.755-0.275,1.236c0.068,0.55,0,1.305,0.687,1.305
		c0.138-0.137,0.069-0.411,0.275-0.549c0.206-0.069,0.274,0.068,0.412,0.205c0.206,0.207,0.206-0.137,0.344-0.274
		c0.068,0,0.274-0.068,0.344,0.069c0.137,0.138,0.411,0.138,0.55-0.069c-0.207-0.962-0.413-1.854-1.442-2.129
		c-0.275-0.068-0.069-0.481,0.068-0.549c-0.344-0.344-0.55,0.343-0.893,0c-0.138-0.344,0.412-0.344,0.412-0.619
		c0.343-0.137,0.687,0.275,0.894-0.206c0.137,0,0.206,0.138,0.206,0.206c-0.069,0.275-0.138,0.55-0.48,0.687
		c0.206,0.275,0.55,0.207,0.688,0.481c0.48,0.137,0.617,0.756,0.893,1.099c0,0.138,0,0.344,0.206,0.344l0.206-0.55
		c0.276-0.343,0.206-0.824,0.619-1.03c0.068-0.069,0.137,0.137,0.205,0.206l-0.548,1.237c0,0.137-0.07,0.343,0.067,0.343
		c0.068-0.343,0.412-0.618,0.344-0.961c0.206-0.275,0.412-0.55,0.345-0.894c-0.482-0.206-0.826-0.549-0.962-1.03
		c-0.138-0.344-0.069-0.757-0.275-1.031c-0.344,0.069-0.688,0-0.892-0.207c-0.207-0.343-0.482-0.892-1.032-0.892
		c0-0.069-0.068-0.206,0.068-0.275c0.481-0.069,1.031-0.138,1.512-0.482c0.756-0.686,0.826-1.716,0.756-2.747
		c-0.068-0.618,0.688-0.205,0.826-0.618c0.136-0.137,0.273-0.137,0.479,0.069c0.274,0.893,1.648,0.412,2.062,1.374
		c0,0.275-0.412,0.137-0.481,0.137c0.069,0.344,0.481,0.55,0.481,0.963c-0.138,0.137-0.275,0.275-0.481,0.275
		c-0.479-0.413-0.618-1.031-0.961-1.581h-0.137c-0.207,0.687,0.48,0.962,0.755,1.511l-0.136,0.207
		c-0.139,0.068-0.345-0.069-0.481-0.137c-0.344-0.619-0.962-1.1-0.756-1.787c-0.068-0.138-0.136-0.206-0.274-0.206
		c-0.206,0-0.344,0.137-0.274,0.412c0.48,0.687,0.619,1.581,1.442,2.062c0.206,0.205,0.139,0.549,0,0.755
		c-0.068,0.55,0.206,0.961,0.551,1.236c0.067,0,0.273,0.068,0.206-0.138c-0.276-0.481-0.412-0.962-0.412-1.511
		c0-0.276,0.273-0.481,0.479-0.413c-0.138,0.55,0,1.1,0.138,1.648c0,0.069,0.138,0.137,0.274,0.069
		c-0.137-0.412-0.274-0.893-0.137-1.305c0.206-0.138,0.343-0.343,0.48-0.276C46.15,9.022,46.15,9.502,46.15,9.983
		c0,0.274,0.274,0.55,0.55,0.618c0.55-0.618-0.343-1.236,0-1.993c0.138-0.137,0.068-0.411,0.344-0.548
		c0.138,0,0.206,0.205,0.206,0.343c-0.344,0.412-0.344,1.168,0,1.58c0.274,0.206,0.274,0.893,0.688,0.618
		C48.142,9.502,47.73,8.335,47.25,7.442L47.25,7.442z M44.158,8.953V8.747l-0.894-0.893C43.334,8.404,43.746,8.747,44.158,8.953
		L44.158,8.953z M43.54,9.366l-0.55-0.481c0-0.138-0.138-0.343-0.206-0.206c-0.138,0.343,0.275,0.481,0.48,0.755
		C43.402,9.502,43.472,9.434,43.54,9.366L43.54,9.366z M42.99,9.847c-0.412-0.207-0.48-0.619-0.755-0.756
		c-0.068,0.137,0,0.343,0.138,0.412c0.206,0.207,0.412,0.618,0.618,0.618C43.128,9.983,43.06,9.847,42.99,9.847L42.99,9.847z
		 M42.373,10.121c-0.344-0.206-0.481-0.755-0.894-0.618c0.068,0.481,0.55,0.481,0.756,0.755
		C42.304,10.258,42.373,10.189,42.373,10.121L42.373,10.121z M45.052,11.151c-0.412-0.413-0.756-0.962-0.894-1.512
		c-0.138,0.207-0.068,0.55,0.068,0.825C44.226,10.876,44.708,10.945,45.052,11.151L45.052,11.151z M44.021,11.22l-0.274-0.412
		C43.746,11.014,43.883,11.22,44.021,11.22L44.021,11.22z M45.326,14.379c0.481-1.099,0.481-2.335,0.756-3.571l-0.274,0.343
		c-0.756,0.893-0.619,2.197-1.031,3.297c-0.137,0.893-0.755,1.648-1.304,2.335c-0.07,0.138-0.276,0.48,0,0.55
		C44.226,16.44,44.639,15.341,45.326,14.379L45.326,14.379z M43.746,11.838c-0.273-0.275-0.412-0.687-0.687-0.961l-0.069,0.206
		c0,0.344,0.206,0.619,0.482,0.755C43.608,11.907,43.746,11.976,43.746,11.838L43.746,11.838z M47.936,11.563
		c-0.069-0.343-0.413-0.48-0.688-0.549c0,1.099-0.206,2.061-0.618,3.022c-0.344,1.374-1.306,2.679-2.061,3.984l-0.068,0.206
		c0.48-0.138,0.687-0.55,1.1-0.825C46.7,15.615,47.799,13.762,47.936,11.563L47.936,11.563z M46.7,12.319
		c0.068-0.275,0.206-0.756-0.068-0.961c-0.48,0.687-0.618,1.442-0.618,2.266l-0.412,1.031c-0.48,0.479-0.55,1.168-1.03,1.647
		c-0.137,0.275-0.344,0.275-0.412,0.55c-0.068,0.274-0.412,0.549-0.344,0.824c0.138-0.069,0.068,0.068,0.138,0.138
		c0.274-0.07,0.274-0.413,0.55-0.413C45.326,15.753,46.425,14.243,46.7,12.319L46.7,12.319z M44.776,11.838
		c-0.412,0.206-0.48,0.825-0.687,1.305c0,0.619,0.137,1.374-0.344,1.854v-1.786l-0.067-0.069c-0.276,0.413-0.206,0.894-0.619,1.305
		c-0.413,0.549-0.207,1.443,0.137,1.992c0.344-0.205,0.55-0.618,0.687-0.962c0.413-0.411,0.481-0.961,0.619-1.441
		C44.776,13.418,44.846,12.663,44.776,11.838L44.776,11.838z M42.304,16.096c-0.069-0.274-0.344-0.892-0.688-0.411
		c-0.618,0.274-1.306,0.274-1.923,0.55c0,0.343,0.138,0.687,0.48,0.892c0,0.137,0,0.207,0.138,0.207
		c0.344,0,0.275-0.412,0.344-0.618C41,16.303,41,17.127,41.411,16.99c0.137-0.274-0.068-0.755,0.343-0.894
		c0.138,0.139,0.207,0.413,0.345,0.481C42.304,16.509,42.235,16.235,42.304,16.096L42.304,16.096z M42.99,17.677
		c-0.138-0.206-0.138-0.481-0.412-0.481c-0.274,0.481-0.825-0.069-1.1,0.412c-0.274,0.344-1.03,0.344-0.962,0.824h0.962
		c0.207,0.069,0.412,0.137,0.55-0.137c0.206-0.275,0.344,0.137,0.618,0C42.646,18.088,42.853,17.883,42.99,17.677L42.99,17.677z
		 M42.373,19.188c-0.481,0.137-0.687-0.275-1.1-0.344c-0.068,0.069-0.068,0.275-0.068,0.344c-0.068,0.205-1.1,0.618-0.962,0.756
		c0.481-0.138,1.992-0.275,2.267-0.688L42.373,19.188L42.373,19.188z M36.946,4.145c0,0,0.756-0.137,0.894,0.206
		c0.618,1.581-1.442,1.717-1.374,2.953c0.411,0.069,0.893,0.206,1.167-0.205l0.619,0.205c0.344,0,0.412-0.618,0.824-0.412
		c0.206-0.137,0.481-0.206,0.618-0.069c0.275-0.137,0.206-0.48,0.138-0.618c-0.344,0.137-0.825,0.207-1.235,0.275
		c-0.138,0-0.344-0.206-0.207-0.344c0.481,0.206,0.481-0.618,1.1-0.343c0.274-0.137,0.344-0.55,0.344-0.824
		c-0.138-0.825-0.274-1.512-1.167-1.718c-0.138,0-0.206-0.067-0.344,0c0,0.07,0,0.138,0.068,0.138
		c0.138,0.069,0.207,0.206,0.069,0.275c-0.206,0.138-0.481,0.068-0.618-0.069c0-0.068-0.068-0.068-0.207-0.068
		C37.427,3.527,37.014,3.595,36.946,4.145L36.946,4.145z M34.199,19.463c-0.069-0.138,0.068-0.413,0.618-0.961
		c0.55-0.687,0.618-1.855,0.756-2.542c0.138-0.825,0.686-1.442,0.686-1.442s-0.892,0.275-1.304,1.58
		c-0.344,0.962-0.618,2.817-1.443,2.886c-0.068,0-0.138,0-0.138,0c-0.48-0.069-0.893-0.274-1.236-0.619c0,0-0.274-0.275-0.344-0.343
		c-1.648-1.924-2.815-4.534-2.885-7.212c0.412-2.747,1.511-5.701,4.396-6.663c0.55-0.069,1.1-0.275,1.717,0
		c0.688,0.481,0.618,1.58,0.618,2.335l0.206,0.137c0.55-0.481,1.168-1.03,1.58-1.717c0-0.138-0.205-0.275-0.412-0.344
		c-0.138,0-0.274,0.069-0.412,0.069c-0.206,0-0.345-0.069-0.345-0.275c-0.067-0.481,0.413-1.1,0.619-1.1
		c0.825-0.137,1.375-0.892,2.268-0.343c0.48,0.138,0.894,0.481,1.1,1.031c0.344,0.962,0.206,1.923,0.274,2.954
		c0.069,0.138,0.138,0.207,0.344,0.207c0.687-0.207,0.687-0.756,0.687-1.442c-0.068-0.619-0.205-1.374,0.344-1.787
		c0.481-0.481,1.031-0.893,1.992-0.481c1.442,0.481,2.474,1.854,3.298,2.954c0.687,0.961,1.168,1.992,1.441,3.16
		c0.206,2.13-0.273,4.053-1.1,5.839c-0.618,1.442-1.442,2.61-2.748,3.572c-0.274,0.137-0.618,0.206-0.894,0.069
		c0,0-0.41-0.344-0.618-0.413c0,0.138,0.414,0.48,0.48,0.619c0.068,0.137,0.206,0.343,0.137,0.549l-0.137,0.137
		c-0.138,0.07-0.206,0.07-0.344,0.07c-0.068,0-0.206,0-0.412,0c-1.1,0.137-1.305,0.137-2.061,0.274
		c-0.48,0.069-1.03,0.137-1.511,0.275c-0.275,0-0.344-0.275-0.206-0.412c0-0.275,0.206-0.412,0.412-0.55l0.136-0.068
		c0.139-0.138,0.276-0.207,0.276-0.413c0.068-0.824-0.412-1.442-0.687-2.198c0,0-0.48-1.58-1.236-1.167
		c-0.138,0.206,0.068,0.824,0.068,0.824c-0.068,0.825,0.138,1.512,0.412,2.267c0,0.069,0.069,0.55,0,0.688
		c-0.343,0.137-0.549,0.206-0.893,0.206c-0.069,0.068-0.206,0.068-0.894,0.137C35.366,20.081,34.199,19.874,34.199,19.463
		L34.199,19.463z M40.037,9.983c-0.275,0.481-0.894,0-1.237,0.344c-0.206,0.068-0.343-0.069-0.479-0.207V9.983
		c0.275,0,0.55-0.069,0.755-0.274c0.206-0.07,0.481,0.274,0.687,0c0.138-0.07,0.069-0.344,0.275-0.413
		C40.311,9.434,40.105,9.778,40.037,9.983L40.037,9.983z M41.617,12.182c-0.069,0.343,0.618,0.275,0.412,0.618
		c-0.275,0.138-0.481-0.137-0.618-0.275c-0.138-0.343-0.206-0.824-0.138-1.03C41.823,11.426,41.411,11.907,41.617,12.182
		L41.617,12.182z M42.716,12.182c0,0.137,0.137,0.343-0.069,0.343c-0.206,0.138-0.48,0-0.687-0.206
		c-0.274-0.412-0.413-0.961-0.207-1.511c0.138-0.138,0.275,0,0.275,0.137c0.206,0.275-0.068,0.756,0.275,1.099L42.716,12.182
		L42.716,12.182z M40.655,10.945c-0.138,0.137-0.206,0.344-0.481,0.275c-0.823-0.206-0.687,0.962-1.511,0.824
		c-0.275-0.068-0.756,0.138-0.894-0.343c0.138-0.206,0.55-0.069,0.755-0.206c0.138,0.068,0.344,0.068,0.48,0.068
		c0.207-0.206-0.137-0.412,0.138-0.549c0.275,0.137,0.55-0.138,0.688-0.276c0.343,0.07,0.618,0,0.756-0.274
		C40.724,10.464,40.655,10.738,40.655,10.945L40.655,10.945z"/>
	<path fill="#FFFFFF" d="M28.291,5.176V19.6c-0.274,0.274-0.274,0.069-0.343-0.275c-0.344-2.198-0.482-5.907-3.847-8.93
		C16.614,3.664,7.479,6.618,9.333,14.86c2.335,10.509,18.821,4.74,20.951,18.409C32.55,47.693,19.361,52.227,8.852,46.8
		c0,0-2.679-1.717-3.778-1.305c-0.412,0.205-0.756,1.168-0.824,2.196c0,1.513-0.412,1.031-0.412,0.894c0-0.617,0-15.455,0-15.455
		c0-0.272,0.206-0.205,0.206-0.067c0.274,17.103,18.89,19.302,18.545,9.342C22.109,30.659,3.906,33.68,2.259,21.661
		C0.197,6.823,15.034,2.633,23.757,9.022c1.719,1.305,3.298-0.687,3.573-1.031c0.548-0.892,0.411-1.717,0.618-2.815
		C28.016,4.695,28.291,4.832,28.291,5.176L28.291,5.176z"/>
	<path fill="#FFFFFF" d="M113.535,19.737c0.067,1.03-0.481,0.755-0.481,0.755c1.373-11.059-20.882-24.041-22.322,4.328
		c-1.237,25.141,16.21,30.086,23.009,12.913c0.069-0.206,0.481-1.511,0.481-1.647c0.138-0.412,0.206,0.066,0.138,0.617
		c-3.915,21.912-40.869,14.631-32.353-17.447c1.991-7.624,11.882-14.905,19.781-12.707c4.671,1.305,4.122,1.993,6.938,3.503
		c3.227,1.649,4.051-2.266,4.465-4.259c0.344-0.206,0.344,0.481,0.344,0.481V19.737L113.535,19.737z"/>
	<path fill="#FFFFFF" d="M70.122,11.289c-1.646-2.61-4.395-4.122-7.624-3.916c-0.412,0-0.412,0.275-0.412,0.275V27.98
		c0,0.481,0.412,0.481,0.412,0.481c3.571,0.275,6.664-1.923,8.38-5.015C72.869,19.806,72.252,14.517,70.122,11.289L70.122,11.289z
		 M80.357,14.792c0.894,5.152-0.206,9.273-2.747,11.54c-4.535,3.64-9.479,2.541-14.906,2.747c-0.686,0-0.618,0.825-0.618,0.825
		v18.684H51.165L51.096,7.648c0.067-0.825-1.443-0.618-2.404-0.687c-0.481,0-0.275-0.412-0.069-0.412
		c4.259,0.068,17.034-0.413,24.246,1.099C76.578,8.404,79.671,10.67,80.357,14.792L80.357,14.792z"/>
	<path fill="#FFFFFF" d="M45.738,22.073v26.514c-1.58,0.068-11.265,0-11.265,0V23.103c0,0,0.068-0.892-0.55-0.961
		c-1.305-0.069-3.021-0.206-3.021-0.206c-0.275,0-0.481-0.275,0-0.343c1.306,0,14.219,0,14.219,0
		C45.738,21.592,45.738,22.073,45.738,22.073L45.738,22.073z"/>
</g>
</svg>
