<?xml version="1.0" encoding="utf-8"?>
<!-- Generator: Adobe Illustrator 16.0.0, SVG Export Plug-In . SVG Version: 6.00 Build 0)  -->
<!DOCTYPE svg PUBLIC "-//W3C//DTD SVG 1.1//EN" "http://www.w3.org/Graphics/SVG/1.1/DTD/svg11.dtd">
<svg version="1.1" id="Layer_1" xmlns="http://www.w3.org/2000/svg" xmlns:xlink="http://www.w3.org/1999/xlink" x="0px" y="0px"
	 width="117.31px" height="62.089px" viewBox="0 0 117.31 62.089" enable-background="new 0 0 117.31 62.089" xml:space="preserve">
<g>
	<path fill-rule="evenodd" clip-rule="evenodd" d="M34.679,4.763c-0.206-0.137-0.48-0.137-0.824-0.137
		C33.237,4.901,32.619,5.107,32,5.519c-1.58,1.305-2.198,3.366-2.541,5.358c-0.069,0.961,0.342,1.923,0.548,2.816
		c0.207,1.511,1.031,2.747,1.992,3.915l0.275,0.069c0.069-0.069,0-0.206,0-0.343c-0.894-1.786-2.061-3.641-1.718-5.907
		c0.276-0.481,0.894-0.893,0.756-1.512h-0.138c-0.274,0.481-0.48,1.031-0.961,1.306c0.48-0.687,0.48-1.581,0.687-2.404
		c0.137-0.274,0.344,0.069,0.48,0.137l0.138-0.206c0.069,0,0.206-0.068,0.275,0c0.069,0.619,0.069,1.236-0.069,1.786
		c0.206-0.138,0.274-0.413,0.412-0.55c0.207-0.55-0.068-1.099,0-1.58c0.344-0.343,0.413-0.756,0.618-1.1
		c0.894-0.343,0.344,0.962,0.825,1.168c0.137-0.274,0.206-0.618,0.412-0.892c-0.275-0.276-0.55-0.619-0.825-0.825
		c-0.549-0.413-0.687,0.481-1.099,0.549c-0.618,0.138-0.55,0.757-0.894,1.1c-0.274-0.138-0.206-0.481-0.137-0.756
		c0-0.48,0.481-0.48,0.756-0.755c0.481-0.206,0.619-0.687,0.825-1.099c0.136-0.069,0.412,0,0.48,0.206
		c0.756-0.138,0.55,0.756,1.1,0.962c0.618,0.069,0.756,0.619,1.305,0.825c0.413-0.482-0.412-0.687-0.481-1.168
		C34.679,6.068,35.229,5.244,34.679,4.763L34.679,4.763z M34.405,7.648c-0.206,0.138-0.412,0.55-0.55,0.824
		c0.069,0.07,0.138,0.07,0.275,0.07C34.473,8.404,34.473,7.923,34.405,7.648L34.405,7.648z M35.435,8.061
		c-0.962-0.275-0.687,0.892-1.098,1.305c-0.138,0.137-0.276,0.274-0.413,0.137c-0.069-0.206,0-0.412-0.069-0.48
		c0,0.206-0.274,0.206-0.412,0.344c0.068,0.137,0.275,0.068,0.412,0.137c0.412,0.893-0.206,1.718-0.618,2.474l-0.069,0.618
		c0.275,1.099,0.962,1.993,1.305,3.021c-0.068-0.892-0.686-1.579-0.686-2.472c-0.206-0.961,0.755-1.167,1.03-1.923
		c0.068-0.275-0.138-0.893,0.344-0.962c0.137-0.206,0.068-0.618,0.068-0.755c-0.274,0.275-0.824,0.481-0.55,0.962
		c-0.206,0.618-0.274,1.58-1.03,1.648c-0.206-0.069-0.138-0.275-0.138-0.412c0.413-0.275,0.688-0.893,0.619-1.443
		c0.069-0.755,0.961-1.098,0.825-1.854C35.022,8.128,35.297,8.128,35.435,8.061L35.435,8.061z M32.893,9.915
		c0-0.275,0.069-0.687-0.206-0.824c0.138,0.619-0.206,1.03-0.343,1.511C32.619,10.533,32.825,10.189,32.893,9.915L32.893,9.915z
		 M33.374,10.464c0.069-0.069,0.137-0.275,0-0.275c-0.275,0.412-0.481,0.756-0.755,1.031c-0.275,0.343-0.138,0.893-0.344,1.305
		c0.138,0.069,0.069,0.206,0.206,0.343c0.206,0.207,0.344,0.55,0.481,0.825c0.137,0.824,0.756,1.441,0.825,2.335
		c0.068,0.344-0.069,0.688,0.206,1.031c0.068-0.343,0.206-0.687,0.068-1.031c-0.068-0.343-0.206-0.687-0.343-1.03
		c-0.069-0.618-0.275-1.305-0.687-1.786c-0.344-0.412-0.275-0.687-0.344-1.099C32.825,11.563,33.237,11.014,33.374,10.464
		L33.374,10.464z M31.657,13.143c-0.206-0.549,0.137-1.374-0.481-1.786c-0.206,0.344-0.137,0.825-0.137,1.236
		c0,1.443,0.756,2.541,1.237,3.778c0.206,0.274,0.206,0.755,0.48,1.03c0.07-0.138,0.275-0.824-0.068-1.167
		C32.275,15.204,31.657,14.311,31.657,13.143L31.657,13.143z M32.137,12.663c0-0.344,0.07-0.55-0.137-0.619
		c-0.206,0.55-0.137,1.237,0,1.854c0.207,0.618,0.755,1.924,1.237,2.885c0.137,0.412,0.137,0.893,0.068,1.305
		c0.069-0.206,0.275-0.412,0.275-0.549c-0.138-0.824-0.207-1.717-0.55-2.405C32.755,14.243,32.275,13.693,32.137,12.663
		L32.137,12.663z M36.19,12.663c-0.137-0.206-0.274-0.48-0.48-0.619c-0.413,0.756-0.755,1.58-0.413,2.404
		c0.413-0.069,0.206-0.619,0.413-0.825C35.778,13.143,36.258,13.075,36.19,12.663L36.19,12.663z M34.955,14.448
		c-0.618-0.687-0.207-1.58,0-2.266l-0.688,0.549c-0.206,0.688,0.07,1.512,0.55,1.992C34.955,14.723,34.955,14.517,34.955,14.448
		L34.955,14.448z M37.358,14.723c-0.206-0.55-0.068-1.375-0.756-1.511c-0.206,0.275-0.549,0.275-0.48,0.687
		c0.136,0.069,0.206,0.688,0.549,0.55c0.275,0.068,0.343,0.344,0.413,0.549C37.221,15.067,37.358,14.86,37.358,14.723L37.358,14.723
		z M36.396,17.059c-0.48,0-0.412-0.481-0.618-0.824c-0.138,0.411,0,0.824,0,1.167c0.138,0.069,0.275-0.138,0.48-0.138
		c0.276,0.138,0.07,0.551,0.138,0.757c0.07-0.069,0.138-0.206,0.138-0.276c0.687-0.274,0.343,0.619,0.687,0.894
		c0.275-0.069,0.137-0.48,0.412-0.618c0.069-0.069,0.275,0,0.275-0.206c-0.068-0.275-0.275-0.619-0.55-0.413
		C36.946,17.402,36.877,16.922,36.396,17.059L36.396,17.059z M36.053,18.982c-0.137-0.207-0.275-0.619-0.619-0.755
		c-0.137,0.137-0.274,0.275-0.343,0.481c0.137,0.068,0.137,0.343,0.343,0.412C35.641,19.119,35.984,19.256,36.053,18.982
		L36.053,18.982z M37.633,16.509c0.069-0.069-0.206-0.961-0.069-1.031c0,0.069,0.069,0.137,0.069,0.137
		c0-0.068-0.069-0.137-0.069-0.137c-0.206-0.274-0.55,0.275-0.962,0c-0.068-0.137-0.344,0-0.48,0.069
		c-0.069,0.138,0,0.275,0.068,0.412l0.068,0.069l0.276-0.137c0.137-0.206,0.274,0,0.274,0.137c0,0.275-0.137,0.344,0.069,0.481
		c0,0,0.344-0.274,0.413-0.413C37.29,16.096,37.496,16.716,37.633,16.509L37.633,16.509z M47.25,7.442l-0.893-1.237
		c-0.687-0.962-1.511-1.717-2.542-2.129c-0.342-0.137-0.824-0.412-1.305,0c-0.824,0.825-0.137,1.786-0.481,2.61
		c-0.275,0.618-0.893,1.1-1.58,1.031c-0.344-0.207-0.618-0.55-1.03-0.413c-0.276,0.344-0.825-0.068-0.962,0.413
		c-0.206,0.069-0.412,0.069-0.55-0.069c-0.275-0.275-0.412,0.138-0.55,0.206c-0.344,0.344-0.824-0.206-1.236,0.137
		c-0.688,0.894-0.344,2.267-0.069,3.366c0.205,0.825,1.031,1.374,1.717,1.923c0.138,0.206-0.206,0.343-0.137,0.687
		c0.137,0.549,0.343,1.305,1.099,1.374c-0.137-0.825-0.48-1.923,0.275-2.473c0.137-0.068,0.207-0.068,0.344,0.069
		c0,0.411-0.413,0.755-0.275,1.236c0.068,0.55,0,1.305,0.686,1.305c0.138-0.137,0.07-0.411,0.276-0.549
		c0.206-0.069,0.274,0.068,0.412,0.205c0.206,0.207,0.206-0.137,0.344-0.274c0.068,0,0.274-0.068,0.343,0.069
		c0.137,0.138,0.412,0.138,0.55-0.069c-0.207-0.962-0.413-1.854-1.442-2.129c-0.275-0.068-0.069-0.481,0.068-0.549
		c-0.343-0.344-0.55,0.343-0.892,0c-0.138-0.344,0.412-0.344,0.412-0.619c0.343-0.137,0.686,0.275,0.893-0.206
		c0.137,0,0.206,0.138,0.206,0.206c-0.069,0.275-0.137,0.55-0.48,0.687c0.206,0.275,0.55,0.207,0.687,0.481
		c0.481,0.137,0.618,0.756,0.893,1.099c0,0.138,0,0.344,0.206,0.344l0.206-0.55c0.276-0.343,0.206-0.824,0.619-1.03
		c0.069-0.069,0.137,0.137,0.205,0.206l-0.548,1.237c0,0.137-0.07,0.343,0.068,0.343c0.068-0.343,0.412-0.618,0.344-0.961
		c0.206-0.275,0.412-0.55,0.344-0.894c-0.482-0.206-0.826-0.549-0.962-1.03c-0.137-0.344-0.069-0.757-0.275-1.031
		c-0.344,0.069-0.687,0-0.892-0.207c-0.207-0.343-0.482-0.892-1.032-0.892c0-0.069-0.068-0.206,0.069-0.275
		c0.481-0.069,1.031-0.138,1.511-0.482c0.756-0.686,0.826-1.716,0.756-2.747c-0.068-0.618,0.688-0.205,0.826-0.618
		c0.136-0.137,0.274-0.137,0.48,0.069c0.274,0.893,1.648,0.412,2.061,1.374c0,0.275-0.412,0.137-0.481,0.137
		c0.069,0.344,0.481,0.55,0.481,0.963c-0.137,0.137-0.275,0.275-0.481,0.275c-0.48-0.413-0.618-1.031-0.961-1.581h-0.137
		c-0.207,0.687,0.481,0.962,0.755,1.511l-0.136,0.207c-0.138,0.068-0.344-0.069-0.481-0.137c-0.344-0.619-0.962-1.1-0.756-1.787
		c-0.068-0.138-0.136-0.206-0.274-0.206c-0.206,0-0.344,0.137-0.275,0.412c0.481,0.687,0.619,1.581,1.443,2.062
		c0.206,0.205,0.138,0.549,0,0.755c-0.069,0.55,0.206,0.961,0.55,1.236c0.068,0,0.274,0.068,0.206-0.138
		c-0.276-0.481-0.412-0.962-0.412-1.511c0-0.276,0.274-0.481,0.48-0.413c-0.138,0.55,0,1.1,0.138,1.648
		c0,0.069,0.137,0.137,0.274,0.069c-0.137-0.412-0.274-0.893-0.137-1.305c0.206-0.138,0.343-0.343,0.481-0.276
		C46.15,9.022,46.15,9.502,46.15,9.983c0,0.274,0.275,0.55,0.55,0.618c0.55-0.618-0.343-1.236,0-1.993
		c0.138-0.137,0.068-0.411,0.344-0.548c0.137,0,0.206,0.205,0.206,0.343c-0.344,0.412-0.344,1.168,0,1.58
		c0.274,0.206,0.274,0.893,0.687,0.618C48.142,9.502,47.73,8.335,47.25,7.442L47.25,7.442z M44.158,8.953V8.747l-0.894-0.893
		C43.334,8.404,43.746,8.747,44.158,8.953L44.158,8.953z M43.54,9.366l-0.55-0.481c0-0.138-0.138-0.343-0.206-0.206
		c-0.138,0.343,0.275,0.481,0.48,0.755C43.402,9.502,43.472,9.434,43.54,9.366L43.54,9.366z M42.99,9.847
		c-0.412-0.207-0.48-0.619-0.755-0.756c-0.068,0.137,0,0.343,0.138,0.412c0.206,0.207,0.412,0.618,0.618,0.618
		C43.128,9.983,43.06,9.847,42.99,9.847L42.99,9.847z M42.373,10.121c-0.344-0.206-0.482-0.755-0.894-0.618
		c0.069,0.481,0.55,0.481,0.756,0.755C42.304,10.258,42.373,10.189,42.373,10.121L42.373,10.121z M45.052,11.151
		c-0.413-0.413-0.756-0.962-0.894-1.512c-0.138,0.207-0.068,0.55,0.068,0.825C44.226,10.876,44.708,10.945,45.052,11.151
		L45.052,11.151z M44.021,11.22l-0.274-0.412C43.746,11.014,43.883,11.22,44.021,11.22L44.021,11.22z M45.326,14.379
		c0.481-1.099,0.481-2.335,0.756-3.571l-0.275,0.343c-0.755,0.893-0.619,2.197-1.031,3.297c-0.137,0.893-0.755,1.648-1.304,2.335
		c-0.07,0.138-0.276,0.48,0,0.55C44.226,16.44,44.639,15.341,45.326,14.379L45.326,14.379z M43.746,11.838
		c-0.274-0.275-0.412-0.687-0.687-0.961l-0.069,0.206c0,0.344,0.206,0.619,0.482,0.755C43.608,11.907,43.746,11.976,43.746,11.838
		L43.746,11.838z M47.936,11.563c-0.069-0.343-0.413-0.48-0.687-0.549c0,1.099-0.206,2.061-0.618,3.022
		c-0.344,1.374-1.306,2.679-2.061,3.984l-0.068,0.206c0.48-0.138,0.686-0.55,1.099-0.825C46.7,15.615,47.799,13.762,47.936,11.563
		L47.936,11.563z M46.7,12.319c0.068-0.275,0.206-0.756-0.068-0.961c-0.481,0.687-0.619,1.442-0.619,2.266l-0.412,1.031
		c-0.48,0.48-0.549,1.168-1.03,1.648c-0.137,0.275-0.344,0.275-0.412,0.55c-0.068,0.274-0.412,0.549-0.344,0.824
		c0.138-0.069,0.069,0.068,0.138,0.138c0.274-0.07,0.274-0.413,0.55-0.413C45.326,15.753,46.425,14.243,46.7,12.319L46.7,12.319z
		 M44.776,11.838c-0.412,0.206-0.48,0.825-0.686,1.305c0,0.619,0.136,1.374-0.344,1.854v-1.786l-0.068-0.069
		c-0.276,0.413-0.206,0.894-0.619,1.305c-0.413,0.549-0.207,1.443,0.137,1.992c0.344-0.205,0.55-0.618,0.687-0.962
		c0.413-0.411,0.481-0.961,0.619-1.441C44.776,13.418,44.846,12.663,44.776,11.838L44.776,11.838z M42.304,16.096
		c-0.069-0.274-0.343-0.892-0.687-0.411c-0.618,0.274-1.306,0.274-1.923,0.55c0,0.343,0.138,0.687,0.481,0.892
		c0,0.137,0,0.207,0.137,0.207c0.344,0,0.276-0.412,0.344-0.618c0.344-0.413,0.344,0.411,0.755,0.274
		c0.137-0.274-0.068-0.755,0.343-0.894c0.137,0.139,0.207,0.413,0.344,0.481C42.304,16.509,42.235,16.235,42.304,16.096
		L42.304,16.096z M42.99,17.677c-0.138-0.206-0.138-0.481-0.412-0.481c-0.275,0.481-0.825-0.069-1.1,0.412
		c-0.274,0.344-1.03,0.344-0.962,0.824h0.962c0.207,0.069,0.412,0.137,0.55-0.137c0.206-0.275,0.344,0.137,0.618,0
		C42.646,18.088,42.853,17.883,42.99,17.677L42.99,17.677z M42.373,19.188c-0.482,0.137-0.687-0.275-1.1-0.344
		c-0.068,0.069-0.068,0.275-0.068,0.344c-0.069,0.205-1.1,0.618-0.962,0.756c0.481-0.138,1.992-0.275,2.267-0.688L42.373,19.188
		L42.373,19.188z M36.946,4.145c0,0,0.756-0.137,0.894,0.206c0.618,1.581-1.443,1.717-1.374,2.953
		c0.411,0.069,0.892,0.206,1.167-0.205l0.619,0.205c0.343,0,0.412-0.618,0.824-0.412c0.206-0.137,0.481-0.206,0.618-0.069
		c0.275-0.137,0.206-0.48,0.138-0.618c-0.344,0.137-0.825,0.207-1.236,0.275c-0.137,0-0.343-0.206-0.207-0.344
		c0.482,0.206,0.482-0.618,1.1-0.343c0.274-0.137,0.344-0.55,0.344-0.824c-0.138-0.825-0.275-1.512-1.167-1.718
		c-0.138,0-0.206-0.067-0.344,0c0,0.07,0,0.138,0.068,0.138c0.138,0.069,0.207,0.206,0.07,0.275
		c-0.206,0.138-0.482,0.068-0.618-0.069c0-0.068-0.069-0.068-0.207-0.068C37.427,3.527,37.014,3.595,36.946,4.145L36.946,4.145z
		 M34.199,19.463c-0.069-0.138,0.068-0.413,0.618-0.961c0.55-0.687,0.618-1.855,0.756-2.542c0.138-0.825,0.686-1.442,0.686-1.442
		s-0.892,0.275-1.304,1.58c-0.344,0.962-0.618,2.817-1.444,2.886c-0.068,0-0.137,0-0.137,0c-0.481-0.069-0.893-0.274-1.237-0.619
		c0,0-0.274-0.275-0.343-0.343c-1.649-1.924-2.816-4.534-2.885-7.212c0.412-2.747,1.511-5.701,4.396-6.663
		c0.55-0.069,1.1-0.275,1.717,0c0.688,0.481,0.618,1.58,0.618,2.335l0.206,0.137c0.55-0.481,1.168-1.03,1.581-1.717
		c0-0.138-0.206-0.275-0.413-0.344c-0.137,0-0.274,0.069-0.412,0.069c-0.206,0-0.344-0.069-0.344-0.275
		c-0.068-0.481,0.413-1.1,0.619-1.1c0.825-0.137,1.375-0.892,2.267-0.343c0.481,0.138,0.894,0.481,1.1,1.031
		c0.344,0.962,0.206,1.923,0.274,2.954c0.07,0.138,0.138,0.207,0.344,0.207c0.687-0.207,0.687-0.756,0.687-1.442
		c-0.069-0.619-0.205-1.374,0.343-1.787c0.482-0.481,1.032-0.893,1.993-0.481c1.442,0.481,2.473,1.854,3.297,2.954
		c0.687,0.961,1.168,1.992,1.442,3.16c0.206,2.13-0.274,4.053-1.1,5.839c-0.618,1.442-1.442,2.61-2.748,3.572
		c-0.274,0.137-0.618,0.206-0.893,0.069c0,0-0.411-0.344-0.619-0.413c0,0.138,0.414,0.481,0.481,0.619
		c0.068,0.137,0.206,0.343,0.137,0.549l-0.137,0.137c-0.138,0.07-0.206,0.07-0.344,0.07c-0.068,0-0.206,0-0.412,0
		c-1.1,0.137-1.305,0.137-2.061,0.274c-0.48,0.069-1.03,0.137-1.51,0.275c-0.276,0-0.344-0.275-0.206-0.412
		c0-0.275,0.206-0.412,0.412-0.55l0.136-0.068c0.138-0.138,0.276-0.207,0.276-0.413c0.068-0.824-0.412-1.442-0.687-2.198
		c0,0-0.48-1.58-1.236-1.167c-0.138,0.206,0.068,0.824,0.068,0.824c-0.068,0.825,0.138,1.512,0.413,2.267
		c0,0.069,0.069,0.55,0,0.688c-0.343,0.137-0.549,0.206-0.893,0.206c-0.069,0.068-0.206,0.068-0.894,0.137
		C35.366,20.081,34.199,19.874,34.199,19.463L34.199,19.463z M40.037,9.983c-0.276,0.481-0.894,0-1.237,0.344
		c-0.206,0.068-0.343-0.069-0.48-0.207V9.983c0.275,0,0.55-0.069,0.755-0.274c0.206-0.07,0.481,0.274,0.686,0
		c0.138-0.07,0.07-0.344,0.276-0.413C40.311,9.434,40.105,9.778,40.037,9.983L40.037,9.983z M41.617,12.182
		c-0.069,0.343,0.618,0.275,0.412,0.618c-0.275,0.138-0.481-0.137-0.618-0.275c-0.138-0.343-0.206-0.824-0.138-1.03
		C41.823,11.426,41.411,11.907,41.617,12.182L41.617,12.182z M42.716,12.182c0,0.137,0.136,0.343-0.07,0.343
		c-0.206,0.138-0.48,0-0.686-0.206c-0.275-0.412-0.413-0.961-0.207-1.511c0.137-0.138,0.275,0,0.275,0.137
		c0.206,0.275-0.068,0.756,0.275,1.099L42.716,12.182L42.716,12.182z M40.655,10.945c-0.138,0.137-0.206,0.344-0.481,0.275
		c-0.824-0.206-0.687,0.962-1.511,0.824c-0.276-0.068-0.756,0.138-0.894-0.343c0.138-0.206,0.55-0.069,0.755-0.206
		c0.138,0.068,0.344,0.068,0.481,0.068c0.207-0.206-0.137-0.412,0.137-0.549c0.276,0.137,0.55-0.138,0.688-0.276
		c0.343,0.07,0.618,0,0.756-0.274C40.724,10.464,40.655,10.738,40.655,10.945L40.655,10.945z"/>
	<path fill-rule="evenodd" clip-rule="evenodd" d="M3.976,55.662c-0.069,0.344-0.069,1.236,1.099,1.236
		c0.618,0,1.167-0.274,1.167-1.099c0-1.168-1.717-1.1-1.717-1.923c0-0.413,0.344-0.551,0.619-0.551c0.481,0,0.549,0.274,0.549,0.688
		h0.55c0-0.757-0.343-1.101-1.099-1.101c-0.619,0-1.099,0.344-1.099,1.032c0,1.167,1.717,1.029,1.717,1.922
		c0,0.413-0.275,0.619-0.688,0.619c-0.343,0-0.618-0.206-0.618-0.687v-0.138H3.976L3.976,55.662z"/>
	<polygon fill-rule="evenodd" clip-rule="evenodd" points="8.99,56.829 8.99,56.348 7.479,56.348 7.479,55.042 8.852,55.042 
		8.852,54.631 7.479,54.631 7.479,53.395 8.921,53.395 8.921,52.983 6.998,52.983 6.998,56.829 8.99,56.829 	"/>
	<path fill-rule="evenodd" clip-rule="evenodd" d="M11.806,54.013c0-0.757-0.275-1.101-1.031-1.101
		c-0.755,0-1.236,0.276-1.236,1.375v1.099c0,1.442,0.756,1.512,1.236,1.512c0.206,0,1.099,0,1.031-1.236h-0.481
		c0,0.755-0.48,0.824-0.618,0.824c-0.343,0-0.687-0.138-0.687-1.031v-1.03c0-0.686,0.137-0.755,0.137-0.824
		c0-0.067,0.207-0.274,0.55-0.274c0.138,0,0.344,0,0.482,0.138c0.068,0.137,0.068,0.343,0.068,0.55H11.806L11.806,54.013z"/>
	<path fill-rule="evenodd" clip-rule="evenodd" d="M12.492,55.386c0,1.1,0.413,1.512,1.168,1.512c0.825,0,1.237-0.412,1.237-1.512
		v-2.403h-0.481v2.472c0,0.825-0.274,1.031-0.756,1.031c-0.412,0-0.686-0.206-0.686-1.031v-2.472h-0.482V55.386L12.492,55.386z"/>
	<path fill-rule="evenodd" clip-rule="evenodd" d="M16.202,53.395h0.687c0.412,0,0.55,0.344,0.55,0.618s-0.206,0.618-0.55,0.618
		h-0.687V53.395L16.202,53.395z M16.751,55.042c0.138,0,0.55,0,0.55,0.482c0.069,0.549,0.069,1.029,0.206,1.304h0.481
		c-0.069-0.274-0.137-0.893-0.137-1.029c0-0.757-0.206-0.894-0.618-0.962l0,0c0.412-0.138,0.686-0.481,0.686-0.893
		c0-0.481-0.206-0.962-0.893-0.962h-1.374v3.846h0.55v-1.786H16.751L16.751,55.042z"/>
	<polygon fill-rule="evenodd" clip-rule="evenodd" points="19.155,52.983 18.675,52.983 18.675,56.829 19.155,56.829 19.155,52.983 
			"/>
	<polygon fill-rule="evenodd" clip-rule="evenodd" points="19.705,52.983 19.705,53.395 20.666,53.395 20.666,56.829 21.148,56.829 
		21.148,53.395 22.178,53.395 22.178,52.983 19.705,52.983 	"/>
	<polygon fill-rule="evenodd" clip-rule="evenodd" points="23.208,52.983 22.728,52.983 22.728,56.829 23.208,56.829 23.208,52.983 
			"/>
	<polygon fill-rule="evenodd" clip-rule="evenodd" points="26.093,56.829 26.093,56.348 24.582,56.348 24.582,55.042 25.956,55.042 
		25.956,54.631 24.582,54.631 24.582,53.395 26.093,53.395 26.093,52.983 24.101,52.983 24.101,56.829 26.093,56.829 	"/>
	<path fill-rule="evenodd" clip-rule="evenodd" d="M26.574,55.662c0,0.344,0,1.236,1.167,1.236c0.619,0,1.168-0.274,1.168-1.099
		c0-1.168-1.717-1.1-1.717-1.923c0-0.413,0.274-0.551,0.549-0.551c0.481,0,0.619,0.274,0.619,0.688h0.48
		c0.069-0.757-0.343-1.101-1.03-1.101c-0.618,0-1.099,0.344-1.099,1.032c0,1.167,1.717,1.029,1.717,1.922
		c0,0.413-0.343,0.619-0.687,0.619c-0.343,0-0.687-0.206-0.687-0.687v-0.138H26.574L26.574,55.662z"/>
	<polygon fill-rule="evenodd" clip-rule="evenodd" points="31.313,52.983 30.833,52.983 30.833,56.829 31.313,56.829 31.313,52.983 
			"/>
	<polygon fill-rule="evenodd" clip-rule="evenodd" points="34.405,52.983 34.405,56.28 34.405,56.28 32.893,52.983 32.207,52.983 
		32.207,56.829 32.619,56.829 32.619,53.463 32.619,53.463 34.13,56.829 34.816,56.829 34.816,52.983 34.405,52.983 	"/>
	<polygon fill-rule="evenodd" clip-rule="evenodd" points="38.114,52.983 37.633,52.983 36.74,56.348 36.74,56.348 35.846,52.983 
		35.297,52.983 36.396,56.829 37.014,56.829 38.114,52.983 	"/>
	<polygon fill-rule="evenodd" clip-rule="evenodd" points="40.587,56.829 40.587,56.348 39.075,56.348 39.075,55.042 40.449,55.042 
		40.449,54.631 39.075,54.631 39.075,53.395 40.587,53.395 40.587,52.983 38.595,52.983 38.595,56.829 40.587,56.829 	"/>
	<path fill-rule="evenodd" clip-rule="evenodd" d="M41.067,55.662c0,0.344,0,1.236,1.168,1.236c0.618,0,1.167-0.274,1.167-1.099
		c0-1.168-1.717-1.1-1.717-1.923c0-0.413,0.275-0.551,0.549-0.551c0.481,0,0.618,0.274,0.618,0.688h0.482
		c0.068-0.757-0.344-1.101-1.031-1.101c-0.618,0-1.099,0.344-1.099,1.032c0,1.167,1.717,1.029,1.717,1.922
		c0,0.413-0.344,0.619-0.688,0.619c-0.344,0-0.687-0.206-0.687-0.687v-0.138H41.067L41.067,55.662z"/>
	<polygon fill-rule="evenodd" clip-rule="evenodd" points="43.746,52.983 43.746,53.395 44.776,53.395 44.776,56.829 45.258,56.829 
		45.258,53.395 46.288,53.395 46.288,52.983 43.746,52.983 	"/>
	<path fill-rule="evenodd" clip-rule="evenodd" d="M47.936,56.898c0.756,0,1.168-0.412,1.168-1.512V54.15
		c0-0.755-0.412-1.237-1.168-1.237c-0.825,0-1.236,0.482-1.236,1.237v1.236C46.7,56.486,47.111,56.898,47.936,56.898L47.936,56.898z
		 M47.936,56.486c-0.481,0-0.755-0.206-0.755-1.031V54.15c0-0.824,0.549-0.824,0.755-0.824c0.137,0,0.687,0,0.687,0.824v1.305
		C48.623,56.28,48.349,56.486,47.936,56.486L47.936,56.486z"/>
	<path fill-rule="evenodd" clip-rule="evenodd" d="M50.409,53.395h0.756c0.344,0,0.481,0.344,0.481,0.618s-0.137,0.618-0.481,0.618
		h-0.756V53.395L50.409,53.395z M50.958,55.042c0.206,0,0.55,0,0.618,0.482c0,0.549,0,1.029,0.138,1.304h0.48
		c-0.068-0.274-0.136-0.893-0.136-1.029c0-0.757-0.138-0.894-0.619-0.962l0,0c0.48-0.138,0.687-0.481,0.687-0.893
		c0-0.481-0.206-0.962-0.893-0.962h-1.305v3.846h0.48v-1.786H50.958L50.958,55.042z"/>
	<path fill-rule="evenodd" clip-rule="evenodd" d="M54.53,53.395h0.688c0.068,0,0.55,0.068,0.55,0.618
		c0,0.618-0.482,0.687-0.688,0.687h-0.55V53.395L54.53,53.395z M54.53,56.829v-1.717h0.619c0.412,0,1.099-0.206,1.099-1.03
		c0-0.893-0.549-1.099-1.099-1.099H54.05v3.846H54.53L54.53,56.829z"/>
	<path fill-rule="evenodd" clip-rule="evenodd" d="M57.347,53.395h0.756c0.342,0,0.48,0.344,0.48,0.618s-0.138,0.618-0.48,0.618
		h-0.756V53.395L57.347,53.395z M57.896,55.042c0.207,0,0.549,0,0.619,0.482c0.068,0.549,0,1.029,0.136,1.304h0.55
		c-0.138-0.274-0.138-0.893-0.138-1.029c-0.068-0.757-0.205-0.894-0.686-0.962l0,0c0.481-0.138,0.756-0.481,0.756-0.893
		c0-0.481-0.274-0.962-0.962-0.962h-1.305v3.846h0.481v-1.786H57.896L57.896,55.042z"/>
	<path fill-rule="evenodd" clip-rule="evenodd" d="M60.986,56.898c0.824,0,1.168-0.412,1.168-1.512V54.15
		c0-0.755-0.344-1.237-1.168-1.237c-0.824,0-1.236,0.482-1.236,1.237v1.236C59.75,56.486,60.163,56.898,60.986,56.898L60.986,56.898
		z M60.986,56.486c-0.48,0-0.686-0.206-0.686-1.031V54.15c0-0.824,0.55-0.824,0.686-0.824c0.138,0,0.688,0,0.688,0.824v1.305
		C61.674,56.28,61.468,56.486,60.986,56.486L60.986,56.486z"/>
	<polygon fill-rule="evenodd" clip-rule="evenodd" points="62.636,52.983 62.636,53.395 63.666,53.395 63.666,56.829 64.147,56.829 
		64.147,53.395 65.109,53.395 65.109,52.983 62.636,52.983 	"/>
	<polygon fill-rule="evenodd" clip-rule="evenodd" points="67.581,56.829 67.581,56.348 66.069,56.348 66.069,55.042 67.444,55.042 
		67.444,54.631 66.069,54.631 66.069,53.395 67.581,53.395 67.581,52.983 65.589,52.983 65.589,56.829 67.581,56.829 	"/>
	<path fill-rule="evenodd" clip-rule="evenodd" d="M70.397,54.013c0.068-0.757-0.206-1.101-0.961-1.101
		c-0.756,0-1.238,0.276-1.238,1.375v1.099c0,1.442,0.688,1.512,1.168,1.512c0.276,0,1.1,0,1.1-1.236h-0.479
		c0,0.755-0.482,0.824-0.62,0.824c-0.412,0-0.686-0.138-0.686-1.031v-1.03c0-0.686,0.067-0.755,0.136-0.824
		c0-0.067,0.138-0.274,0.55-0.274c0.07,0,0.344,0,0.414,0.138c0.136,0.137,0.136,0.343,0.136,0.55H70.397L70.397,54.013z"/>
	<polygon fill-rule="evenodd" clip-rule="evenodd" points="70.741,52.983 70.741,53.395 71.771,53.395 71.771,56.829 72.252,56.829 
		72.252,53.395 73.283,53.395 73.283,52.983 70.741,52.983 	"/>
	<polygon fill-rule="evenodd" clip-rule="evenodd" points="74.312,52.983 73.831,52.983 73.831,56.829 74.312,56.829 74.312,52.983 
			"/>
	<path fill-rule="evenodd" clip-rule="evenodd" d="M76.373,56.898c0.825,0,1.169-0.412,1.169-1.512V54.15
		c0-0.755-0.344-1.237-1.169-1.237c-0.824,0-1.236,0.482-1.236,1.237v1.236C75.137,56.486,75.549,56.898,76.373,56.898
		L76.373,56.898z M76.373,56.486c-0.48,0-0.687-0.206-0.687-1.031V54.15c0-0.824,0.55-0.824,0.687-0.824
		c0.138,0,0.688,0,0.688,0.824v1.305C77.061,56.28,76.854,56.486,76.373,56.486L76.373,56.486z"/>
	<polygon fill-rule="evenodd" clip-rule="evenodd" points="80.563,52.983 80.563,56.28 80.563,56.28 79.121,52.983 78.366,52.983 
		78.366,56.829 78.846,56.829 78.846,53.463 78.846,53.463 80.357,56.829 81.043,56.829 81.043,52.983 80.563,52.983 	"/>
	<path fill-rule="evenodd" clip-rule="evenodd" d="M85.234,54.013c0-0.757-0.276-1.101-1.03-1.101c-0.756,0-1.237,0.276-1.237,1.375
		v1.099c0,1.442,0.756,1.512,1.237,1.512c0.206,0,1.099,0,1.03-1.236h-0.48c0,0.755-0.481,0.824-0.618,0.824
		c-0.344,0-0.688-0.138-0.688-1.031v-1.03c0-0.686,0.137-0.755,0.137-0.824c0-0.067,0.138-0.274,0.551-0.274
		c0.137,0,0.343,0,0.48,0.138c0.068,0.137,0.068,0.343,0.068,0.55H85.234L85.234,54.013z"/>
	<path fill-rule="evenodd" clip-rule="evenodd" d="M87.088,56.898c0.825,0,1.237-0.412,1.237-1.512V54.15
		c0-0.755-0.412-1.237-1.237-1.237c-0.824,0-1.166,0.482-1.166,1.237v1.236C85.922,56.486,86.264,56.898,87.088,56.898
		L87.088,56.898z M87.088,56.486c-0.41,0-0.686-0.206-0.686-1.031V54.15c0-0.824,0.549-0.824,0.686-0.824
		c0.208,0,0.756,0,0.756,0.824v1.305C87.844,56.28,87.569,56.486,87.088,56.486L87.088,56.486z"/>
	<path fill-rule="evenodd" clip-rule="evenodd" d="M89.631,53.395h0.686c0.414,0,0.551,0.344,0.551,0.618s-0.206,0.618-0.551,0.618
		h-0.686V53.395L89.631,53.395z M90.179,55.042c0.138,0,0.552,0,0.552,0.482c0.068,0.549,0,1.029,0.137,1.304h0.549
		c-0.067-0.274-0.138-0.893-0.138-1.029c0-0.757-0.206-0.894-0.617-0.962l0,0c0.411-0.138,0.688-0.481,0.688-0.893
		c0-0.481-0.208-0.962-0.894-0.962h-1.374v3.846h0.55v-1.786H90.179L90.179,55.042z"/>
	<path fill-rule="evenodd" clip-rule="evenodd" d="M92.584,53.395h0.687c0.069,0,0.55,0.068,0.55,0.618
		c0,0.618-0.48,0.687-0.687,0.687h-0.55V53.395L92.584,53.395z M92.584,56.829v-1.717h0.618c0.412,0,1.1-0.206,1.1-1.03
		c0-0.893-0.55-1.099-1.1-1.099h-1.1v3.846H92.584L92.584,56.829z"/>
	<path fill-rule="evenodd" clip-rule="evenodd" d="M96.155,56.898c0.756,0,1.168-0.412,1.168-1.512V54.15
		c0-0.755-0.412-1.237-1.168-1.237c-0.823,0-1.235,0.482-1.235,1.237v1.236C94.92,56.486,95.332,56.898,96.155,56.898L96.155,56.898
		z M96.155,56.486c-0.479,0-0.756-0.206-0.756-1.031V54.15c0-0.824,0.55-0.824,0.756-0.824c0.138,0,0.688,0,0.688,0.824v1.305
		C96.843,56.28,96.567,56.486,96.155,56.486L96.155,56.486z"/>
	<path fill-rule="evenodd" clip-rule="evenodd" d="M98.629,53.395h0.756c0.342,0,0.481,0.344,0.481,0.618s-0.14,0.618-0.481,0.618
		h-0.756V53.395L98.629,53.395z M99.179,55.042c0.206,0,0.548,0,0.618,0.482c0,0.549,0,1.029,0.138,1.304h0.479
		c-0.068-0.274-0.138-0.893-0.138-1.029c0-0.757-0.136-0.894-0.618-0.962l0,0c0.482-0.138,0.688-0.481,0.688-0.893
		c0-0.481-0.205-0.962-0.894-0.962h-1.305v3.846h0.481v-1.786H99.179L99.179,55.042z"/>
	<path fill-rule="evenodd" clip-rule="evenodd" d="M100.69,56.829h0.479l0.274-0.962h1.512l0.275,0.962h0.55l-1.237-3.846h-0.618
		L100.69,56.829L100.69,56.829z M102.817,55.455h-1.235l0.618-2.06l0,0L102.817,55.455L102.817,55.455z"/>
	<polygon fill-rule="evenodd" clip-rule="evenodd" points="103.506,52.983 103.506,53.395 104.535,53.395 104.535,56.829 
		105.017,56.829 105.017,53.395 105.979,53.395 105.979,52.983 103.506,52.983 	"/>
	<polygon fill-rule="evenodd" clip-rule="evenodd" points="107.009,52.983 106.528,52.983 106.528,56.829 107.009,56.829 
		107.009,52.983 	"/>
	<path fill-rule="evenodd" clip-rule="evenodd" d="M109.068,56.898c0.825,0,1.237-0.412,1.237-1.512V54.15
		c0-0.755-0.412-1.237-1.237-1.237c-0.754,0-1.168,0.482-1.168,1.237v1.236C107.9,56.486,108.314,56.898,109.068,56.898
		L109.068,56.898z M109.068,56.486c-0.41,0-0.687-0.206-0.687-1.031V54.15c0-0.824,0.55-0.824,0.687-0.824
		c0.207,0,0.756,0,0.756,0.824v1.305C109.824,56.28,109.55,56.486,109.068,56.486L109.068,56.486z"/>
	<polygon fill-rule="evenodd" clip-rule="evenodd" points="113.327,52.983 113.327,56.28 113.327,56.28 111.817,52.983 
		111.131,52.983 111.131,56.829 111.542,56.829 111.542,53.463 111.611,53.463 113.121,56.829 113.739,56.829 113.739,52.983 
		113.327,52.983 	"/>
	<path fill-rule="evenodd" clip-rule="evenodd" d="M28.291,5.176V19.6c-0.275,0.274-0.275,0.069-0.343-0.275
		c-0.344-2.198-0.482-5.907-3.847-8.93C16.614,3.664,7.479,6.618,9.333,14.86c2.335,10.509,18.821,4.74,20.951,18.409
		C32.55,47.693,19.361,52.227,8.852,46.8c0,0-2.678-1.717-3.778-1.305c-0.412,0.206-0.756,1.168-0.824,2.197
		c0,1.512-0.412,1.031-0.412,0.894c0-0.618,0-15.455,0-15.455c0-0.273,0.206-0.206,0.206-0.068
		c0.274,17.103,18.889,19.302,18.545,9.342C22.109,30.659,3.906,33.68,2.259,21.661C0.197,6.823,15.034,2.633,23.757,9.022
		c1.718,1.305,3.297-0.687,3.573-1.031c0.548-0.892,0.411-1.717,0.618-2.815C28.016,4.695,28.291,4.832,28.291,5.176L28.291,5.176z"
		/>
	<path fill-rule="evenodd" clip-rule="evenodd" d="M113.535,19.737c0.067,1.03-0.482,0.755-0.482,0.755
		c1.374-11.059-20.881-24.041-22.322,4.328c-1.237,25.14,16.21,30.085,23.009,12.913c0.069-0.206,0.481-1.511,0.481-1.648
		c0.138-0.412,0.206,0.067,0.138,0.618c-3.915,21.911-40.869,14.631-32.352-17.447c1.991-7.624,11.881-14.905,19.781-12.707
		c4.671,1.305,4.122,1.993,6.938,3.503c3.227,1.649,4.051-2.266,4.465-4.259c0.344-0.206,0.344,0.481,0.344,0.481V19.737
		L113.535,19.737z"/>
	<path fill-rule="evenodd" clip-rule="evenodd" d="M70.122,11.289c-1.647-2.61-4.395-4.122-7.624-3.916
		c-0.412,0-0.412,0.275-0.412,0.275V27.98c0,0.481,0.412,0.481,0.412,0.481c3.571,0.275,6.664-1.923,8.38-5.015
		C72.869,19.806,72.252,14.517,70.122,11.289L70.122,11.289z M80.357,14.792c0.894,5.152-0.206,9.273-2.747,11.54
		c-4.535,3.64-9.479,2.541-14.906,2.747c-0.686,0-0.618,0.825-0.618,0.825v18.683H51.165L51.096,7.648
		c0.068-0.825-1.443-0.618-2.404-0.687c-0.481,0-0.275-0.412-0.069-0.412c4.259,0.068,17.034-0.413,24.246,1.099
		C76.578,8.404,79.671,10.67,80.357,14.792L80.357,14.792z"/>
	<path fill-rule="evenodd" clip-rule="evenodd" d="M45.738,22.073v26.514c-1.58,0.069-11.265,0-11.265,0V23.103
		c0,0,0.069-0.892-0.549-0.961c-1.305-0.069-3.022-0.206-3.022-0.206c-0.275,0-0.481-0.275,0-0.343c1.306,0,14.219,0,14.219,0
		C45.738,21.592,45.738,22.073,45.738,22.073L45.738,22.073z"/>
</g>
</svg>
